<svg width="117" height="108" viewBox="0 0 117 108" fill="none" xmlns="http://www.w3.org/2000/svg">
<g clip-path="url(#clip0)">
<path d="M78.6302 52.4467C75.6789 51.4202 71.9577 53.9224 72.8559 59.825C70.9312 58.6701 63.8737 60.4024 62.398 64.4444C61.6281 60.7232 56.6879 58.6701 54.1215 58.4777C53.2874 57.3228 52.9666 56.5529 52.9666 56.5529C52.9666 56.5529 63.4246 61.3007 65.5418 48.7896C68.6856 47.6989 75.5506 49.1746 78.6302 52.4467Z" fill="#F7CC74"/>
<path d="M52.71 56.1679C56.1746 58.606 65.0927 55.7188 64.9644 48.2122C68.5573 46.8649 76.513 49.0463 80.2984 53.4091C81.0041 54.4357 74.7165 49.1746 66.1192 49.1105C67.2099 52.8958 59.4467 61.5573 53.5441 57.0662C53.2233 56.8095 52.6458 56.4887 52.71 56.1679Z" fill="#328535"/>
<path d="M65.4777 48.7897C67.1459 49.6237 72.4069 57.5153 72.7277 61.5573C73.3693 63.867 74.5883 54.6281 66.5043 48.4689C66.5043 48.2122 65.4777 48.7897 65.4777 48.7897Z" fill="#328535"/>
<path d="M65.4777 48.7897C66.1192 50.3295 63.7454 60.6591 62.1414 64.1878C62.0772 66.0484 66.44 60.7874 66.3759 48.8538C65.9268 48.533 65.4777 48.7897 65.4777 48.7897Z" fill="#328535"/>
<path d="M24.48 33.7764C23.5818 36.0862 22.491 37.1769 22.0419 33.3273C20.6304 35.8295 19.8605 35.8295 19.6039 32.6216C18.1924 35.7012 17.1017 34.9313 17.2942 31.2101C19.6039 31.4667 23.3251 32.6857 24.48 33.7764Z" fill="#FFC756"/>
<path d="M31.9866 79.5218C32.8848 82.3448 33.9114 87.5417 31.4733 83.9488C31.345 85.9377 30.3185 84.3979 29.8052 83.4997C29.0353 84.5904 27.4313 80.3559 26.7897 77.9178C28.8428 78.9444 31.0242 80.42 31.9866 79.5218Z" fill="#FFC756"/>
<path d="M42.9578 103.389C44.5618 105.121 46.679 109.227 43.7277 107.174C44.8184 109.035 41.9954 109.163 40.8406 107.495C41.2255 108.843 38.5309 108.137 36.2853 103.581C36.0287 100.758 39.3649 103.774 42.9578 103.389Z" fill="#FFC756"/>
<path d="M87.8049 107.431C84.4687 112.5 77.732 117.825 77.732 117.825C82.1589 121.289 79.7851 121.61 78.6943 121.931C77.6036 122.252 61.3714 123.535 61.2431 122.701C61.1148 121.931 57.9068 120.327 58.7409 119.878C59.5108 119.429 65.221 118.595 65.221 118.595C58.2918 113.719 56.2387 97.9355 70.5462 95.1125" fill="#4A9656"/>
<path d="M41.3539 66.7541C37.1835 65.5993 28.5221 64.9577 26.8539 68.8714C25.1858 72.7851 25.3783 76.3138 26.8539 78.3028C28.3296 80.2917 32.1791 80.805 31.9866 79.586C31.7942 78.3028 32.6282 74.2608 32.6282 74.2608C37.4402 74.1324 43.2145 74.9665 43.2145 74.9665" fill="#4A9656"/>
<path d="M42.5087 20.7522C44.1127 17.4801 52.2609 16.4535 54.0573 11C55.6613 13.5022 51.4268 17.6084 56.1746 18.1216C52.5175 19.2765 50.4003 21.7146 52.9025 23.7035C50.0795 26.8473 42.5087 20.7522 42.5087 20.7522Z" fill="#32853F"/>
<path d="M55.6613 32.6216C55.9821 24.2809 48.4114 18.7632 39.1083 19.2123C29.8052 19.6615 18.9624 17.4801 17.6792 19.6615C16.396 21.8429 16.396 31.0176 16.396 31.0176C20.1814 34.4822 24.4159 32.7499 25.6991 35.8937C21.7854 36.8561 16.396 35.8937 16.396 35.8937C16.396 35.8937 15.1128 38.2676 17.1659 38.7167C19.219 39.1658 31.8583 41.9246 36.7986 42.4379C41.0331 45.1326 40.1348 47.2498 39.4933 66.7542C38.8517 86.2585 42.8295 114.488 85.3028 116.349C127.969 118.274 129.252 86.066 125.146 71.7586C121.039 57.4511 103.973 55.0131 94.5417 48.1481C82.0948 39.1016 90.4355 29.6061 103.652 28.3871C104.935 26.9756 86.0727 27.2964 80.7475 37.1769C75.4223 47.0574 83.6988 52.96 95.5041 60.3383C107.309 67.7166 112.955 75.9289 107.758 81.8957C84.2762 84.1413 56.3029 67.909 55.6613 32.6216Z" fill="#82D85A"/>
<path d="M44.1769 42.6945C50.1437 51.0994 41.7388 77.8537 52.7742 91.1988C63.8095 104.544 80.1701 109.997 97.493 108.842C109.362 108.073 117.511 105.763 122.387 101.015C116.933 110.446 105.898 117.247 85.4311 116.349C42.8937 114.488 38.98 86.2585 39.6216 66.7542C40.2632 47.2498 40.9048 45.1967 36.6703 42.5662C40.0707 43.7211 44.1769 42.6945 44.1769 42.6945Z" fill="#FFDE9C"/>
<path d="M39.1725 23.2544C39.1084 23.1902 38.5951 23.4468 38.0177 24.0884C37.6969 24.4092 37.3761 24.8583 37.1836 25.4999C37.1194 25.8207 37.0553 26.1415 37.1194 26.5265C37.1836 26.9114 37.3761 27.2964 37.6969 27.553C38.3385 28.0663 39.0442 28.1946 39.6858 28.1946C40.3274 28.1946 40.8407 28.0021 41.2256 27.7455C42.0597 27.2964 42.3163 26.7189 42.188 26.6548C42.0597 26.5906 41.6747 26.9114 40.969 27.1681C40.584 27.2964 40.1349 27.3605 39.6216 27.3605C39.1084 27.3605 38.5951 27.1681 38.2101 26.8473C37.8252 26.5265 37.761 26.0774 37.8893 25.5641C38.0177 25.115 38.2101 24.6659 38.4668 24.3451C38.9159 23.7676 39.2367 23.3827 39.1725 23.2544Z" fill="#487D3F"/>
<path d="M23.9026 25.0508C24.0309 25.0508 24.1593 24.7942 24.4159 24.4734C24.7367 24.1526 25.1858 23.7035 25.6991 23.3185C26.2123 22.9336 26.7898 22.6769 27.0464 22.7411C27.1747 22.7411 27.303 22.8694 27.3672 22.9977C27.4314 23.126 27.4955 23.1902 27.5597 23.1902C27.6238 23.1902 27.688 23.126 27.688 22.9336C27.688 22.8052 27.688 22.4845 27.3672 22.2278C27.0464 21.9712 26.5973 22.0353 26.2765 22.0995C25.8915 22.2278 25.5707 22.3561 25.2499 22.6128C24.6084 23.0619 24.1592 23.6393 23.9668 24.1526C23.7101 24.6659 23.8385 25.0508 23.9026 25.0508Z" fill="#487D3F"/>
<path d="M49.8871 22.6128C54.9557 18.1858 64.4512 21.5862 69.199 17.5442C69.199 20.0464 57.522 21.3296 64.7078 27.8096C61.3716 25.949 59.0618 27.4888 59.3826 30.3118C55.084 25.8207 52.0044 24.5375 50.9778 24.73C49.3097 24.5375 48.9247 23.1902 49.8871 22.6128Z" fill="#48A346"/>
<path d="M48.4114 80.0992C41.4823 80.7408 29.4204 91.0063 35.9004 103.325C40.1991 106.789 43.8561 105.314 42.9579 103.453C41.9955 101.593 40.2632 92.2253 54.7632 86.7718" fill="#7DBA7C"/>
<path d="M97.2363 108.073C93.9001 113.141 87.1634 118.466 87.1634 118.466C91.5903 121.931 89.2165 122.252 88.1258 122.573C87.0351 122.893 70.8028 124.177 70.6745 123.342C70.5462 122.573 67.3382 120.969 68.1723 120.519C68.9422 120.07 74.6524 119.236 74.6524 119.236C67.7232 114.36 65.6701 98.5771 79.9776 95.7541" fill="#7DBA7C"/>
<path d="M33.0773 41.8605C33.0773 41.9888 34.0396 42.3096 35.6436 42.6304C37.2476 42.9512 39.5573 43.272 42.1237 43.0795C43.4068 42.9512 44.6259 42.7587 45.7166 42.3096C46.8073 41.9246 47.6413 41.283 48.2829 40.7056C49.502 39.4224 49.6944 38.3317 49.6303 38.3317C49.502 38.2676 49.0528 39.23 47.898 40.2565C47.2564 40.7698 46.4865 41.2189 45.4599 41.5397C44.4976 41.9246 43.3427 42.053 42.1237 42.1813C39.6856 42.3737 37.4401 42.1171 35.7719 41.9888C34.1038 41.7963 33.1414 41.7322 33.0773 41.8605Z" fill="#487D3F"/>
<path d="M102.626 27.7455C103.011 23.7035 98.3912 24.9867 97.493 26.7831C97.4288 22.5486 93.7076 25.4358 92.5527 27.4247C91.6545 22.9977 87.9974 27.7455 87.42 30.5685C86.0727 26.6548 84.4045 31.3384 84.982 35.3804C88.3182 30.1835 93.3868 28.4512 102.626 27.7455Z" fill="#E8B348"/>
<path d="M85.2386 34.803C84.9179 32.6216 82.3515 35.0596 84.7895 40.9622C85.4311 38.2034 84.6612 37.1127 85.2386 34.803Z" fill="#E8B348"/>
<path d="M84.7254 40.9622C85.7519 37.1769 89.2807 38.5242 89.2807 44.8759C90.6922 39.5507 93.7076 43.4644 94.6059 48.2122C95.9532 42.3737 99.8027 45.0043 100.508 50.0087C100.637 43.2078 106.347 49.5595 106.989 53.4732C107.694 47.8914 112.057 52.3184 113.084 56.4887C114.11 49.6879 117.254 56.1679 117.19 59.2476C118.537 52.4467 120.398 59.6967 120.269 63.1613C121.938 58.7343 123.157 65.2144 121.617 70.0904C119.885 63.9312 115.458 58.2852 108.528 55.4622C101.599 52.6392 88.3824 47.4423 84.7254 40.9622Z" fill="#E8B348"/>
<path d="M121.745 69.7055C121.424 66.2409 118.922 66.8183 119.435 73.0418C118.537 68.8073 114.944 74.5174 115.265 78.2386C114.623 73.1059 110.517 74.7099 109.94 81.5749C109.298 76.3139 102.433 76.378 101.728 82.2165C101.471 76.3139 95.3758 74.8382 94.0284 81.3824C94.0284 73.8117 89.5373 73.8117 86.7143 78.1745C87.8692 69.3847 82.2873 69.0639 78.8869 74.9665C80.6833 65.3427 75.1657 66.6259 72.4068 70.4112C75.4865 60.9799 69.5838 62.1989 66.5684 65.2144C71.1237 56.4246 66.44 56.8095 62.398 58.6701C68.7498 53.7299 62.9755 52.6392 59.3184 53.1525C65.6701 50.0087 60.9865 47.314 57.7144 46.8649C63.6812 45.9025 59.4467 41.4755 56.752 40.8339C62.3339 40.1282 57.9069 36.3428 55.5972 34.7388C56.6237 60.4024 71.1237 74.9665 90.1789 80.6125C109.298 86.1944 119.371 78.8161 121.745 69.7055Z" fill="#E8B348"/>
<path d="M38.8517 85.5528C38.98 85.6169 39.4933 85.0395 40.4556 84.2054C41.418 83.3714 42.8937 82.409 44.626 81.6391C46.3583 80.8692 48.0906 80.3559 49.3096 80.0351C50.5286 79.7143 51.3627 79.6501 51.3627 79.5218C51.3627 79.3935 50.5286 79.2652 49.2454 79.4577C47.9622 79.586 46.1658 80.0351 44.3052 80.8692C42.4446 81.7032 40.9689 82.7939 40.0707 83.7563C39.1083 84.7187 38.7234 85.4886 38.8517 85.5528Z" fill="#487D3F"/>
<path d="M48.6038 79.9709C48.7963 80.0992 49.502 79.3293 50.5286 78.6236C51.491 77.9178 52.4533 77.5329 52.3892 77.2763C52.3892 77.1479 52.0684 77.0838 51.6193 77.2121C51.1702 77.2763 50.5927 77.5329 50.0153 77.9178C48.8604 78.7519 48.4113 79.8426 48.6038 79.9709Z" fill="#487D3F"/>
<path d="M44.3052 93.9576C44.4336 94.0217 44.9468 93.4443 45.8451 92.5461C46.7433 91.6479 47.9623 90.3647 49.6304 89.4665C51.2986 88.5682 53.0309 88.3116 54.2499 88.1833C55.5331 88.055 56.303 87.9266 56.303 87.7983C56.303 87.67 55.5331 87.6059 54.1857 87.6059C53.5441 87.6059 52.7742 87.67 51.876 87.7983C51.0419 87.9908 50.0795 88.2474 49.1813 88.7607C47.3849 89.7231 46.1659 91.1346 45.3959 92.1611C44.5619 93.1235 44.2411 93.8934 44.3052 93.9576Z" fill="#487D3F"/>
<path d="M69.4555 109.227C69.5197 109.227 69.5839 109.035 69.648 108.586C69.648 108.393 69.7122 108.137 69.7122 107.88C69.7763 107.623 69.7763 107.303 69.8405 106.982C70.033 105.635 70.4821 103.774 71.5086 101.913C71.9577 101.015 72.5352 100.181 73.1126 99.4753C73.69 98.7695 74.2675 98.1921 74.7807 97.8072C75.294 97.358 75.8073 97.1014 76.1281 96.9089C76.4489 96.7165 76.6414 96.6523 76.6414 96.5881C76.6414 96.524 76.3847 96.524 75.9998 96.6523C75.6148 96.7806 75.0374 96.9731 74.4599 97.358C73.8184 97.743 73.1768 98.3204 72.5352 99.0262C71.8936 99.7319 71.252 100.566 70.7387 101.593C69.648 103.517 69.3272 105.57 69.2631 106.982C69.2631 107.367 69.2631 107.688 69.2631 107.944C69.2631 108.201 69.3272 108.458 69.3272 108.65C69.3272 109.035 69.3914 109.227 69.4555 109.227Z" fill="#487D3F"/>
<path d="M91.7829 114.681C91.8471 114.745 92.4245 114.424 93.2586 113.719C94.0926 113.013 95.1192 111.986 96.0816 110.639C96.5307 109.997 96.9798 109.292 97.2364 108.65C97.5572 108.008 97.7497 107.431 97.9422 106.918C98.3271 105.891 98.4554 105.25 98.3271 105.25C98.1988 105.185 97.878 105.763 97.3647 106.661C97.1081 107.11 96.8515 107.688 96.5307 108.265C96.2099 108.843 95.8249 109.484 95.3758 110.126C94.4776 111.409 93.5152 112.435 92.8095 113.269C92.1037 114.104 91.6546 114.617 91.7829 114.681Z" fill="#487D3F"/>
<path d="M106.026 113.654C106.09 113.719 106.475 113.526 107.053 113.077C107.566 112.628 108.336 111.986 108.913 111.088C109.555 110.19 109.94 109.292 110.068 108.586C110.196 107.88 110.132 107.431 110.004 107.431C109.876 107.431 109.747 107.816 109.491 108.393C109.234 108.971 108.849 109.805 108.272 110.639C107.053 112.243 105.834 113.462 106.026 113.654Z" fill="#CC9A37"/>
<path d="M61.8847 111.024C61.8847 111.152 62.4621 111.216 63.3603 110.831C64.1944 110.511 65.2209 109.677 66.055 108.586C66.8891 107.495 67.4024 106.34 67.5948 105.442C67.7873 104.544 67.7231 103.966 67.5948 103.966C67.4665 103.966 67.3382 104.48 67.0174 105.25C66.6966 106.019 66.1833 107.046 65.4134 108.073C64.6435 109.099 63.8094 109.869 63.1037 110.318C62.3979 110.767 61.8847 110.896 61.8847 111.024Z" fill="#CC9A37"/>
<path d="M52.9025 105.955C52.9025 106.084 53.4799 106.148 54.4423 105.955C54.8914 105.827 55.4688 105.635 56.0463 105.314C56.6237 104.993 57.137 104.544 57.7144 104.031C58.2277 103.517 58.6768 103.068 59.1259 102.619C59.5109 102.17 59.96 101.785 60.2166 101.4C60.5374 101.015 60.6657 100.63 60.794 100.373C60.8582 100.117 60.8582 99.9244 60.794 99.9244C60.6657 99.9244 60.4732 100.373 59.7675 101.015C59.4467 101.336 59.0618 101.657 58.5485 102.106C58.0994 102.555 57.5861 103.004 57.0728 103.453C56.0463 104.416 55.0839 105.057 54.2498 105.378C53.4799 105.699 52.9025 105.827 52.9025 105.955Z" fill="#CC9A37"/>
<path d="M46.1657 97.2939C46.1657 97.4222 46.6149 97.4864 47.3848 97.5505C48.1547 97.5505 49.1812 97.4863 50.3361 97.0372C51.4268 96.5881 52.325 95.9465 52.8383 95.3691C53.3515 94.7917 53.6082 94.4067 53.544 94.3426C53.3515 94.1501 52.0684 95.4974 50.0794 96.2673C49.0529 96.6523 48.0905 96.8448 47.3848 96.9731C46.6149 97.0372 46.1657 97.1656 46.1657 97.2939Z" fill="#CC9A37"/>
<path d="M40.0707 77.2121C40.0065 77.4046 41.2897 78.2386 43.2144 78.4953C45.1392 78.6877 46.6149 78.1103 46.5507 77.9178C46.4866 77.6612 45.0109 77.8537 43.2786 77.6612C41.6105 77.4687 40.199 77.0196 40.0707 77.2121Z" fill="#CC9A37"/>
<path d="M40.0707 68.9997C40.0066 69.0639 40.2632 69.3847 40.7123 69.6413C41.1614 69.9621 41.9313 70.2829 42.8296 70.2829C43.7278 70.2829 44.4977 69.9621 44.9468 69.7055C45.3959 69.3847 45.6525 69.128 45.5884 69.0639C45.4601 68.8073 44.3052 69.513 42.8296 69.4488C41.4181 69.4488 40.199 68.7431 40.0707 68.9997Z" fill="#CC9A37"/>
<path d="M40.5198 61.3648C40.4556 61.4931 40.7123 61.6856 41.1614 61.8139C41.6105 62.0064 42.3162 62.0706 43.022 61.9423C43.7277 61.8139 44.3052 61.5573 44.7543 61.3648C45.1392 61.1723 45.3959 60.9799 45.3959 60.9157C45.3959 60.7874 45.0751 60.7874 44.626 60.7874C44.1768 60.8516 43.5353 60.9799 42.8937 61.1082C41.6746 61.429 40.5839 61.1723 40.5198 61.3648Z" fill="#CC9A37"/>
<path d="M40.9047 53.6657C40.7764 53.8582 41.803 54.4998 43.2145 54.4356C43.9202 54.3715 44.5618 54.179 44.9468 53.8582C45.3317 53.6016 45.46 53.2808 45.3959 53.2166C45.3317 53.1525 45.0751 53.2166 44.6901 53.345C44.3052 53.4733 43.7919 53.5374 43.2145 53.6016C41.9954 53.6657 41.0331 53.4733 40.9047 53.6657Z" fill="#CC9A37"/>
<path d="M39.7499 46.8007C39.6858 47.0574 40.9048 47.5065 42.3804 47.4423C43.1503 47.3782 43.7919 47.2498 44.3052 46.9932C44.7543 46.8007 45.0109 46.5441 44.9468 46.4158C44.8826 46.2874 44.5618 46.3516 44.1127 46.4158C43.6636 46.4799 43.022 46.5441 42.3163 46.5441C40.9048 46.6724 39.8141 46.6082 39.7499 46.8007Z" fill="#CC9A37"/>
<path d="M32.1149 70.0904C31.8583 70.1546 31.9866 71.2453 32.0508 72.5285C32.1149 73.8117 32.1791 74.9024 32.4357 74.9665C32.6924 74.9665 33.0132 73.8758 32.8848 72.4643C32.8207 71.117 32.3716 70.0263 32.1149 70.0904Z" fill="#487D3F"/>
<path d="M50.9135 23.0619C50.9135 23.1902 51.6193 23.3185 52.71 23.5752C53.8007 23.8318 55.3405 24.1526 57.0728 24.6017C58.7409 25.0508 60.2807 25.4999 61.3073 25.8849C62.3338 26.2698 62.9754 26.6548 63.0396 26.5265C63.1037 26.4623 62.5904 25.8849 61.5639 25.3074C60.5374 24.73 58.9975 24.2167 57.2653 23.7676C55.533 23.3185 53.929 23.0619 52.7741 22.9336C51.6193 22.8694 50.9135 22.9977 50.9135 23.0619Z" fill="#32853F"/>
<path d="M52.1326 22.8694C52.1967 23.0619 54.8273 22.8694 58.0352 22.3561C59.6392 22.0995 61.1148 21.7146 62.1414 21.3296C63.1679 20.9446 63.7454 20.6239 63.7454 20.5597C63.6812 20.4314 63.0396 20.5597 62.0131 20.7522C60.9865 20.9446 59.5109 21.2654 57.9069 21.5221C54.6989 22.0353 52.0684 22.6128 52.1326 22.8694Z" fill="#32853F"/>
<path d="M52.1326 24.0243C52.0043 24.2168 53.4157 25.1791 55.2764 25.949C57.137 26.7189 58.6126 27.3605 58.7409 27.1681C58.8693 26.9756 57.5219 25.949 55.5972 25.1791C53.8007 24.4092 52.2609 23.8318 52.1326 24.0243Z" fill="#32853F"/>
<path d="M90.6921 62.3913C86.7784 60.0816 80.8116 62.5197 80.3625 71.2453C77.9245 69.0639 67.4024 69.4488 64.1945 74.774C64.1303 69.3205 57.7144 64.8935 54.1215 63.9312C53.2233 62.0705 53.0308 60.8515 53.0308 60.8515C53.0308 60.8515 66.5042 70.6037 73.1126 53.4732C77.9887 52.7675 87.2276 56.8737 90.6921 62.3913Z" fill="#FFDE9C"/>
<path d="M52.8384 60.2099C57.0729 64.7011 70.5462 63.1613 72.471 52.4467C77.9245 51.5485 88.6391 56.9378 92.7453 64.1878C93.451 65.8559 86.0727 56.617 73.8825 53.9865C74.3316 59.6967 60.7299 69.7696 53.6724 61.6856C53.3516 61.3007 52.5817 60.7232 52.8384 60.2099Z" fill="#46A355"/>
<path d="M73.1126 53.4732C75.2299 55.1414 80.4267 67.8449 79.721 73.6833C79.9135 77.1479 84.3404 64.3803 74.6524 53.3449C74.7166 52.8958 73.1126 53.4732 73.1126 53.4732Z" fill="#46A355"/>
<path d="M73.1126 53.4733C73.5617 55.8472 67.2741 69.7697 64.002 74.3891C63.4246 76.9555 71.0595 70.7962 74.3958 53.8582C73.7542 53.2166 73.1126 53.4733 73.1126 53.4733Z" fill="#46A355"/>
</g>
<defs>
<clipPath id="clip0">
<rect width="117" height="108" fill="white" transform="matrix(-1 0 0 1 117 0)"/>
</clipPath>
</defs>
</svg>
