<svg width="28" height="28" viewBox="0 0 28 28" fill="none" xmlns="http://www.w3.org/2000/svg">
<path d="M23.7692 19.8846C23.7692 20.3786 23.5929 20.7695 23.2285 21.1211C22.8372 21.4987 22.2096 21.8445 21.3131 22.1283C19.5161 22.6973 16.9503 22.923 14 22.923C11.0498 22.923 8.48397 22.6973 6.68688 22.1283C5.7904 21.8445 5.16288 21.4987 4.77151 21.1211C4.40714 20.7695 4.23083 20.3786 4.23083 19.8846C4.23083 19.3905 4.40714 18.9997 4.77151 18.6481C5.16288 18.2704 5.7904 17.9247 6.68688 17.6409C8.48397 17.0719 11.0498 16.8461 14 16.8461C16.9503 16.8461 19.5161 17.0719 21.3131 17.6409C22.2096 17.9247 22.8372 18.2704 23.2285 18.6481C23.5929 18.9997 23.7692 19.3905 23.7692 19.8846Z" fill="#E0E0E0" stroke="#333333" stroke-width="2"/>
<path d="M23.7692 16.2949C23.7692 16.7889 23.5929 17.1798 23.2285 17.5314C22.8372 17.909 22.2096 18.2548 21.3131 18.5386C19.5161 19.1075 16.9503 19.3333 14 19.3333C11.0498 19.3333 8.48397 19.1075 6.68688 18.5386C5.7904 18.2548 5.16288 17.909 4.77151 17.5314C4.40714 17.1798 4.23083 16.7889 4.23083 16.2949C4.23083 15.8008 4.40714 15.4099 4.77151 15.0583C5.16288 14.6807 5.7904 14.3349 6.68688 14.0511C8.48397 13.4822 11.0498 13.2564 14 13.2564C16.9503 13.2564 19.5161 13.4822 21.3131 14.0511C22.2096 14.3349 22.8372 14.6807 23.2285 15.0583C23.5929 15.4099 23.7692 15.8008 23.7692 16.2949Z" fill="#E0E0E0" stroke="#333333" stroke-width="2"/>
<path d="M23.7692 12.7051C23.7692 13.1992 23.5929 13.5901 23.2285 13.9416C22.8372 14.3193 22.2096 14.6651 21.3131 14.9489C19.5161 15.5178 16.9503 15.7436 14 15.7436C11.0498 15.7436 8.48397 15.5178 6.68688 14.9489C5.7904 14.6651 5.16288 14.3193 4.77151 13.9416C4.40714 13.5901 4.23083 13.1992 4.23083 12.7051C4.23083 12.2111 4.40714 11.8202 4.77151 11.4686C5.16288 11.091 5.7904 10.7452 6.68688 10.4614C8.48397 9.89245 11.0498 9.66669 14 9.66669C16.9503 9.66669 19.5161 9.89245 21.3131 10.4614C22.2096 10.7452 22.8372 11.091 23.2285 11.4686C23.5929 11.8202 23.7692 12.2111 23.7692 12.7051Z" fill="#E0E0E0" stroke="#333333" stroke-width="2"/>
<path d="M23.7692 9.11541C23.7692 9.60946 23.5929 10.0003 23.2285 10.3519C22.8372 10.7296 22.2096 11.0753 21.3131 11.3591C19.5161 11.9281 16.9503 12.1539 14 12.1539C11.0498 12.1539 8.48397 11.9281 6.68688 11.3591C5.7904 11.0753 5.16288 10.7296 4.77151 10.3519C4.40714 10.0003 4.23083 9.60946 4.23083 9.11541C4.23083 8.62136 4.40714 8.23048 4.77151 7.8789C5.16288 7.50125 5.7904 7.15549 6.68688 6.87167C8.48397 6.30273 11.0498 6.07697 14 6.07697C16.9503 6.07697 19.5161 6.30273 21.3131 6.87167C22.2096 7.15549 22.8372 7.50125 23.2285 7.8789C23.5929 8.23048 23.7692 8.62136 23.7692 9.11541Z" fill="#E0E0E0" stroke="#333333" stroke-width="2"/>
</svg>
