<svg width="28" height="28" viewBox="0 0 28 28" fill="none" xmlns="http://www.w3.org/2000/svg">
<rect width="28" height="28" fill="white"/>
<path d="M12.9453 16.4297C12.9453 15.6693 13.0312 15.0703 13.2031 14.6328C13.375 14.1901 13.6536 13.8073 14.0391 13.4844C14.4245 13.1615 14.7161 12.8672 14.9141 12.6016C15.1172 12.3307 15.2188 12.0339 15.2188 11.7109C15.2188 10.9245 14.8802 10.5312 14.2031 10.5312C13.8906 10.5312 13.638 10.6458 13.4453 10.875C13.2526 11.1042 13.151 11.4141 13.1406 11.8047H10.5C10.5104 10.763 10.8385 9.95312 11.4844 9.375C12.1302 8.79167 13.0365 8.5 14.2031 8.5C15.3646 8.5 16.263 8.76823 16.8984 9.30469C17.5391 9.84115 17.8594 10.6042 17.8594 11.5938C17.8594 12.026 17.7734 12.4193 17.6016 12.7734C17.4297 13.1276 17.1536 13.4896 16.7734 13.8594L15.875 14.6953C15.6198 14.9401 15.4427 15.1927 15.3438 15.4531C15.2448 15.7083 15.1901 16.0339 15.1797 16.4297H12.9453ZM12.625 18.8047C12.625 18.4193 12.763 18.1042 13.0391 17.8594C13.3203 17.6094 13.6693 17.4844 14.0859 17.4844C14.5026 17.4844 14.849 17.6094 15.125 17.8594C15.4062 18.1042 15.5469 18.4193 15.5469 18.8047C15.5469 19.1901 15.4062 19.5078 15.125 19.7578C14.849 20.0026 14.5026 20.125 14.0859 20.125C13.6693 20.125 13.3203 20.0026 13.0391 19.7578C12.763 19.5078 12.625 19.1901 12.625 18.8047Z" fill="#333333"/>
<rect x="4.5" y="4.5" width="19" height="19" rx="8.5" stroke="#333333" stroke-width="2"/>
</svg>
