<svg width="16" height="20" viewBox="0 0 16 20" fill="none" xmlns="http://www.w3.org/2000/svg">
<path fill-rule="evenodd" clip-rule="evenodd" d="M2.06757 4.53387C2.06757 2.02988 4.03751 0 6.46757 0H9.38233C11.8124 0 13.7823 2.02988 13.7823 4.53387V8.25459H11.3823V4.53387C11.3823 3.39569 10.4869 2.47302 9.38233 2.47302H6.46757C5.363 2.47302 4.46757 3.39569 4.46757 4.53387V8.25459H2.06757V4.53387Z" fill="#54375E"/>
<path fill-rule="evenodd" clip-rule="evenodd" d="M3.99994 7.13657C1.79076 7.13657 -5.97954e-05 8.98191 -5.97954e-05 11.2583V15.8783C-5.97954e-05 18.1547 1.79076 20 3.99994 20H11.9999C14.2091 20 15.9999 18.1547 15.9999 15.8783V11.2583C15.9999 8.98191 14.2091 7.13657 11.9999 7.13657H3.99994ZM7.99994 12.8657C7.3976 12.8657 6.90941 13.3688 6.90941 13.9894V15.7079C6.90941 16.3285 7.3976 16.8315 7.99994 16.8315C8.60219 16.8315 9.09037 16.3285 9.09037 15.7079V13.9894C9.09037 13.3688 8.60219 12.8657 7.99994 12.8657Z" fill="#54375E"/>
</svg>
