<svg width="374" height="60" viewBox="0 0 374 60" fill="none" xmlns="http://www.w3.org/2000/svg">
<g clip-path="url(#clip0)">
<path fill-rule="evenodd" clip-rule="evenodd" d="M318.863 13.7407H306.232L307.144 11.2566H319.774L318.863 13.7407ZM318.407 14.9824H305.776L304.865 17.4665H317.495L318.407 14.9824ZM317.042 18.7086H304.411L303.5 21.1927H316.13L317.042 18.7086Z" fill="#00A5FF"/>
<path fill-rule="evenodd" clip-rule="evenodd" d="M349.818 26.6172H352.114C352.986 26.6172 353.513 26.4208 353.883 25.9789C354.068 25.7577 354.332 25.3648 354.332 24.6282C354.332 23.8914 354.068 23.3756 353.54 23.0074C353.223 22.7862 352.801 22.6635 352.088 22.6635H349.818V26.6172ZM346.782 28.9995V14.8052H356.708L355.837 17.1874H349.818V20.3306H352.273C354.253 20.3306 355.282 20.7727 355.995 21.3375C356.549 21.7796 357.5 22.7619 357.5 24.7018C357.5 26.6175 356.523 27.6733 355.704 28.2135C354.754 28.8275 353.751 28.9995 351.718 28.9995H346.782ZM337.991 28.9995V17.1874H333.582V14.8052H345.831L344.96 17.1874H341.053V28.9995H337.991ZM325.768 20.478H327.484C328.012 20.478 328.276 20.478 328.54 20.4042C329.253 20.2078 329.702 19.6184 329.702 18.8081C329.702 17.8502 329.227 17.4329 328.54 17.2364C328.25 17.1627 327.959 17.1381 327.379 17.1381H325.768V20.478ZM325.795 22.9337V26.6663H327.907C328.541 26.6663 329.121 26.6174 329.543 26.2489C329.966 25.8806 330.151 25.414 330.151 24.8C330.151 24.3335 330.019 23.8915 329.755 23.5722C329.306 23.0564 328.751 22.9337 327.801 22.9337H325.795ZM330.679 21.4358V21.4849C331.259 21.6814 331.814 22.0252 332.104 22.2462C333.002 22.9339 333.398 23.8425 333.398 25.0211C333.398 26.9613 332.289 28.361 330.467 28.8029C329.913 28.9503 329.332 28.9995 328.25 28.9995H322.732V14.8052H327.616C328.619 14.8052 329.306 14.8544 329.913 15.0017C331.682 15.4438 332.843 16.5734 332.843 18.3661C332.843 19.324 332.474 20.1343 331.866 20.6745C331.602 20.9201 331.233 21.2149 330.679 21.4358Z" fill="#022D9A"/>
</g>
<path d="M233.252 50V40.0469H236.458C237.338 40.0469 238.128 40.2474 238.83 40.6484C239.532 41.0449 240.079 41.6077 240.471 42.3369C240.867 43.0615 241.068 43.875 241.072 44.7773V45.2354C241.072 46.1468 240.879 46.9648 240.491 47.6895C240.108 48.4095 239.566 48.9746 238.864 49.3848C238.167 49.7904 237.388 49.9954 236.526 50H233.252ZM235.651 41.8994V48.1543H236.485C237.174 48.1543 237.702 47.9105 238.071 47.4229C238.44 46.9307 238.625 46.2015 238.625 45.2354V44.8047C238.625 43.8431 238.44 43.1185 238.071 42.6309C237.702 42.1432 237.164 41.8994 236.458 41.8994H235.651ZM246.001 46.4863H244.702V50H242.303V40.0469H246.22C247.4 40.0469 248.323 40.3089 248.988 40.833C249.654 41.3571 249.986 42.0977 249.986 43.0547C249.986 43.7474 249.845 44.3216 249.562 44.7773C249.285 45.2331 248.847 45.6022 248.25 45.8848L250.328 49.8975V50H247.758L246.001 46.4863ZM244.702 44.6338H246.22C246.675 44.6338 247.017 44.5153 247.245 44.2783C247.478 44.0368 247.594 43.7018 247.594 43.2734C247.594 42.8451 247.478 42.5101 247.245 42.2686C247.013 42.0225 246.671 41.8994 246.22 41.8994H244.702V44.6338ZM257.089 48.1406H253.801L253.227 50H250.663L254.313 40.0469H256.569L260.247 50H257.67L257.089 48.1406ZM254.375 46.2881H256.515L255.441 42.8359L254.375 46.2881ZM268.977 48.7695C268.607 49.1797 268.067 49.5101 267.356 49.7607C266.646 50.0114 265.866 50.1367 265.019 50.1367C263.715 50.1367 262.674 49.738 261.895 48.9404C261.115 48.1429 260.698 47.0332 260.644 45.6113L260.637 44.75C260.637 43.7702 260.81 42.9157 261.156 42.1865C261.503 41.4528 261.997 40.89 262.64 40.498C263.287 40.1016 264.034 39.9033 264.882 39.9033C266.121 39.9033 267.083 40.1882 267.767 40.7578C268.455 41.3229 268.856 42.1683 268.97 43.2939H266.659C266.577 42.738 266.399 42.3415 266.126 42.1045C265.853 41.8675 265.465 41.749 264.964 41.749C264.362 41.749 263.897 42.0042 263.569 42.5146C263.241 43.0251 263.075 43.7542 263.07 44.7021V45.3037C263.07 46.2972 263.239 47.0446 263.576 47.5459C263.918 48.0426 264.453 48.291 265.183 48.291C265.807 48.291 266.272 48.152 266.577 47.874V46.3291H264.909V44.6816H268.977V48.7695ZM278.8 45.2285C278.8 46.1992 278.62 47.0583 278.26 47.8057C277.9 48.5531 277.387 49.1296 276.722 49.5352C276.061 49.9362 275.307 50.1367 274.459 50.1367C273.611 50.1367 272.859 49.943 272.203 49.5557C271.547 49.1637 271.034 48.6055 270.665 47.8809C270.3 47.1562 270.109 46.3245 270.091 45.3857V44.8252C270.091 43.8499 270.269 42.9909 270.624 42.248C270.984 41.5007 271.497 40.9242 272.162 40.5186C272.832 40.113 273.593 39.9102 274.445 39.9102C275.288 39.9102 276.04 40.1107 276.701 40.5117C277.362 40.9128 277.875 41.4847 278.239 42.2275C278.608 42.9658 278.795 43.8135 278.8 44.7705V45.2285ZM276.359 44.8115C276.359 43.8226 276.193 43.0729 275.86 42.5625C275.532 42.0475 275.061 41.79 274.445 41.79C273.242 41.79 272.606 42.6924 272.538 44.4971L272.531 45.2285C272.531 46.2038 272.693 46.9535 273.017 47.4775C273.34 48.0016 273.821 48.2637 274.459 48.2637C275.065 48.2637 275.532 48.0062 275.86 47.4912C276.188 46.9762 276.355 46.2357 276.359 45.2695V44.8115ZM288.35 50H285.964L282.437 43.8066V50H280.037V40.0469H282.437L285.957 46.2402V40.0469H288.35V50ZM295.91 50H293.518V40.0469H295.91V50ZM305.891 50H303.505L299.978 43.8066V50H297.578V40.0469H299.978L303.498 46.2402V40.0469H305.891V50ZM311.271 47.293L313.253 40.0469H315.933L312.583 50H309.958L306.636 40.0469H309.295L311.271 47.293ZM322.837 45.7822H319.063V48.1543H323.521V50H316.664V40.0469H323.534V41.8994H319.063V43.998H322.837V45.7822ZM329.632 47.3545C329.632 47.0036 329.507 46.7301 329.256 46.5342C329.01 46.3382 328.575 46.1354 327.95 45.9258C327.326 45.7161 326.815 45.5133 326.419 45.3174C325.129 44.6839 324.484 43.8135 324.484 42.7061C324.484 42.1546 324.644 41.6693 324.963 41.25C325.286 40.8262 325.742 40.498 326.33 40.2656C326.918 40.0286 327.579 39.9102 328.312 39.9102C329.028 39.9102 329.668 40.0378 330.233 40.293C330.803 40.5482 331.245 40.9128 331.56 41.3867C331.874 41.8561 332.031 42.3939 332.031 43H329.639C329.639 42.5944 329.513 42.2799 329.263 42.0566C329.017 41.8333 328.682 41.7217 328.258 41.7217C327.829 41.7217 327.49 41.8174 327.239 42.0088C326.993 42.1956 326.87 42.4349 326.87 42.7266C326.87 42.9818 327.007 43.2142 327.28 43.4238C327.554 43.6289 328.035 43.8431 328.723 44.0664C329.411 44.2852 329.976 44.5221 330.418 44.7773C331.493 45.3971 332.031 46.2516 332.031 47.3408C332.031 48.2113 331.703 48.8949 331.047 49.3916C330.391 49.8883 329.491 50.1367 328.347 50.1367C327.54 50.1367 326.809 49.9932 326.152 49.7061C325.501 49.4144 325.008 49.0179 324.676 48.5166C324.348 48.0107 324.184 47.4297 324.184 46.7734H326.59C326.59 47.3066 326.727 47.7008 327 47.9561C327.278 48.2067 327.727 48.332 328.347 48.332C328.743 48.332 329.055 48.2477 329.283 48.0791C329.516 47.9059 329.632 47.6644 329.632 47.3545ZM341.075 41.8994H338.088V50H335.688V41.8994H332.756V40.0469H341.075V41.8994ZM347.727 50H345.334V40.0469H347.727V50ZM351.951 50H349.559V40.0469H351.951V50ZM356.176 50H353.783V40.0469H356.176V50Z" fill="#022D9A"/>
<defs>
<clipPath id="clip0">
<rect width="54" height="27" fill="white" transform="translate(303.5 7)"/>
</clipPath>
</defs>
</svg>
