<svg width="85" height="35" viewBox="0 0 85 35" fill="none" xmlns="http://www.w3.org/2000/svg">
<path fill-rule="evenodd" clip-rule="evenodd" d="M19.3457 9.22008H3.4408L4.58835 6H20.4933L19.3457 9.22008ZM18.7716 10.8298H2.86632L1.71879 14.0499H17.624L18.7716 10.8298ZM17.0525 15.66H1.14755L0 18.8801H15.905L17.0525 15.66Z" fill="#00A5FF"/>
<path fill-rule="evenodd" clip-rule="evenodd" d="M58.327 25.9119H61.2192C62.3162 25.9119 62.981 25.6572 63.4464 25.0843C63.6791 24.7976 64.0115 24.2884 64.0115 23.3334C64.0115 22.3783 63.6791 21.7098 63.0144 21.2324C62.6155 20.9457 62.0835 20.7867 61.1858 20.7867H58.327V25.9119ZM54.504 29V10.5999H67.0032L65.9064 13.688H58.3269V17.7625H61.4184C63.9117 17.7625 65.2081 18.3356 66.1057 19.0678C66.8039 19.6409 68.0006 20.9142 68.0006 23.4289C68.0006 25.9122 66.7705 27.2808 65.7399 27.9811C64.5433 28.777 63.2803 29 60.7205 29H54.504ZM43.4342 29V13.688H37.8828V10.5999H53.3073L52.2103 13.688H47.2904V29H43.4342ZM28.0428 17.9536H30.2037C30.8684 17.9536 31.2007 17.9536 31.5335 17.8579C32.431 17.6034 32.9959 16.8393 32.9959 15.7888C32.9959 14.5471 32.3977 14.0062 31.5335 13.7515C31.1677 13.656 30.8019 13.6241 30.0707 13.6241H28.0428V17.9536ZM28.0763 21.137V25.9755H30.7356C31.5336 25.9755 32.2647 25.912 32.7966 25.4344C33.3285 24.9569 33.5612 24.3522 33.5612 23.5562C33.5612 22.9515 33.3951 22.3784 33.0627 21.9646C32.4974 21.296 31.7992 21.137 30.6026 21.137H28.0763ZM34.226 19.1952V19.2588C34.9572 19.5135 35.6552 19.9593 36.021 20.2457C37.1512 21.1371 37.65 22.315 37.65 23.8428C37.65 26.3579 36.2537 28.1723 33.96 28.7452C33.2619 28.9362 32.5306 29 31.1675 29H24.2197V10.5999H30.3697C31.633 10.5999 32.4973 10.6638 33.2619 10.8547C35.4891 11.4278 36.9519 12.8921 36.9519 15.2159C36.9519 16.4576 36.4864 17.5081 35.7218 18.2083C35.3894 18.5266 34.924 18.9088 34.226 19.1952Z" fill="#022D9A"/>
</svg>
