<svg width="125" height="47" viewBox="0 0 125 47" fill="none" xmlns="http://www.w3.org/2000/svg">
<g clip-path="url(#clip0)">
<path fill-rule="evenodd" clip-rule="evenodd" d="M43.8628 7.74065H31.2324L32.1437 5.25659H44.7741L43.8628 7.74065ZM43.4068 8.98244H30.7762L29.8649 11.4665H42.4955L43.4068 8.98244ZM42.0417 12.7086H29.4113L28.5 15.1927H41.1305L42.0417 12.7086Z" fill="#00A5FF"/>
<path fill-rule="evenodd" clip-rule="evenodd" d="M74.8181 20.6172H77.1148C77.986 20.6172 78.5139 20.4208 78.8835 19.9789C79.0683 19.7577 79.3323 19.3648 79.3323 18.6282C79.3323 17.8914 79.0683 17.3756 78.5404 17.0074C78.2237 16.7862 77.8012 16.6635 77.0883 16.6635H74.8181V20.6172ZM71.7822 22.9995V8.80518H81.708L80.837 11.1874H74.818V14.3306H77.273C79.253 14.3306 80.2825 14.7727 80.9953 15.3375C81.5497 15.7796 82.5 16.7619 82.5 18.7018C82.5 20.6175 81.5232 21.6733 80.7049 22.2135C79.7546 22.8275 78.7516 22.9995 76.7188 22.9995H71.7822ZM62.9915 22.9995V11.1874H58.583V8.80518H70.8319L69.9607 11.1874H66.0537V22.9995H62.9915ZM50.7689 14.478H52.4849C53.0127 14.478 53.2767 14.478 53.5409 14.4042C54.2536 14.2078 54.7022 13.6184 54.7022 12.8081C54.7022 11.8502 54.2272 11.4329 53.5409 11.2364C53.2504 11.1627 52.9599 11.1381 52.3793 11.1381H50.7689V14.478ZM50.7955 16.9337V20.6663H52.9073C53.541 20.6663 54.1216 20.6174 54.5439 20.2489C54.9663 19.8806 55.1511 19.414 55.1511 18.8C55.1511 18.3335 55.0192 17.8915 54.7553 17.5722C54.3064 17.0564 53.7519 16.9337 52.8016 16.9337H50.7955ZM55.679 15.4358V15.4849C56.2597 15.6814 56.814 16.0252 57.1045 16.2462C58.002 16.9339 58.3982 17.8425 58.3982 19.0211C58.3982 20.9613 57.2893 22.361 55.4679 22.8029C54.9134 22.9503 54.3327 22.9995 53.2503 22.9995H47.7329V8.80519H52.6167C53.6199 8.80519 54.3062 8.85443 54.9134 9.00173C56.6821 9.44385 57.8437 10.5734 57.8437 12.3661C57.8437 13.324 57.4741 14.1343 56.8669 14.6745C56.603 14.9201 56.2334 15.2149 55.679 15.4358Z" fill="#022D9A"/>
</g>
<path d="M0.751953 44V34.0469H3.95801C4.83757 34.0469 5.62826 34.2474 6.33008 34.6484C7.0319 35.0449 7.57878 35.6077 7.9707 36.3369C8.36719 37.0615 8.56771 37.875 8.57227 38.7773V39.2354C8.57227 40.1468 8.37858 40.9648 7.99121 41.6895C7.6084 42.4095 7.06608 42.9746 6.36426 43.3848C5.66699 43.7904 4.8877 43.9954 4.02637 44H0.751953ZM3.15137 35.8994V42.1543H3.98535C4.6735 42.1543 5.20215 41.9105 5.57129 41.4229C5.94043 40.9307 6.125 40.2015 6.125 39.2354V38.8047C6.125 37.8431 5.94043 37.1185 5.57129 36.6309C5.20215 36.1432 4.66439 35.8994 3.95801 35.8994H3.15137ZM13.501 40.4863H12.2021V44H9.80273V34.0469H13.7197C14.9001 34.0469 15.8229 34.3089 16.4883 34.833C17.1536 35.3571 17.4863 36.0977 17.4863 37.0547C17.4863 37.7474 17.3451 38.3216 17.0625 38.7773C16.7845 39.2331 16.347 39.6022 15.75 39.8848L17.8281 43.8975V44H15.2578L13.501 40.4863ZM12.2021 38.6338H13.7197C14.1755 38.6338 14.5173 38.5153 14.7451 38.2783C14.9775 38.0368 15.0938 37.7018 15.0938 37.2734C15.0938 36.8451 14.9775 36.5101 14.7451 36.2686C14.5127 36.0225 14.1709 35.8994 13.7197 35.8994H12.2021V38.6338ZM24.5889 42.1406H21.3008L20.7266 44H18.1631L21.8135 34.0469H24.0693L27.7471 44H25.1699L24.5889 42.1406ZM21.875 40.2881H24.0146L22.9414 36.8359L21.875 40.2881ZM36.4766 42.7695C36.1074 43.1797 35.5674 43.5101 34.8564 43.7607C34.1455 44.0114 33.3662 44.1367 32.5186 44.1367C31.2152 44.1367 30.1738 43.738 29.3945 42.9404C28.6152 42.1429 28.1982 41.0332 28.1436 39.6113L28.1367 38.75C28.1367 37.7702 28.3099 36.9157 28.6562 36.1865C29.0026 35.4528 29.4971 34.89 30.1396 34.498C30.7868 34.1016 31.5342 33.9033 32.3818 33.9033C33.6214 33.9033 34.583 34.1882 35.2666 34.7578C35.9548 35.3229 36.3558 36.1683 36.4697 37.2939H34.1592C34.0771 36.738 33.8994 36.3415 33.626 36.1045C33.3525 35.8675 32.9652 35.749 32.4639 35.749C31.8623 35.749 31.3975 36.0042 31.0693 36.5146C30.7412 37.0251 30.5749 37.7542 30.5703 38.7021V39.3037C30.5703 40.2972 30.7389 41.0446 31.0762 41.5459C31.418 42.0426 31.9535 42.291 32.6826 42.291C33.307 42.291 33.7718 42.152 34.0771 41.874V40.3291H32.4092V38.6816H36.4766V42.7695ZM46.2998 39.2285C46.2998 40.1992 46.1198 41.0583 45.7598 41.8057C45.3997 42.5531 44.887 43.1296 44.2217 43.5352C43.5609 43.9362 42.8066 44.1367 41.959 44.1367C41.1113 44.1367 40.3594 43.943 39.7031 43.5557C39.0469 43.1637 38.5342 42.6055 38.165 41.8809C37.8005 41.1562 37.609 40.3245 37.5908 39.3857V38.8252C37.5908 37.8499 37.7686 36.9909 38.124 36.248C38.484 35.5007 38.9967 34.9242 39.6621 34.5186C40.332 34.113 41.0931 33.9102 41.9453 33.9102C42.7884 33.9102 43.5404 34.1107 44.2012 34.5117C44.862 34.9128 45.3747 35.4847 45.7393 36.2275C46.1084 36.9658 46.2952 37.8135 46.2998 38.7705V39.2285ZM43.8594 38.8115C43.8594 37.8226 43.693 37.0729 43.3604 36.5625C43.0322 36.0475 42.5605 35.79 41.9453 35.79C40.7422 35.79 40.1064 36.6924 40.0381 38.4971L40.0312 39.2285C40.0312 40.2038 40.193 40.9535 40.5166 41.4775C40.8402 42.0016 41.321 42.2637 41.959 42.2637C42.5651 42.2637 43.0322 42.0062 43.3604 41.4912C43.6885 40.9762 43.8548 40.2357 43.8594 39.2695V38.8115ZM55.8496 44H53.4639L49.9365 37.8066V44H47.5371V34.0469H49.9365L53.457 40.2402V34.0469H55.8496V44ZM63.4102 44H61.0176V34.0469H63.4102V44ZM73.3906 44H71.0049L67.4775 37.8066V44H65.0781V34.0469H67.4775L70.998 40.2402V34.0469H73.3906V44ZM78.7705 41.293L80.7529 34.0469H83.4326L80.083 44H77.458L74.1357 34.0469H76.7949L78.7705 41.293ZM90.3369 39.7822H86.5635V42.1543H91.0205V44H84.1641V34.0469H91.0342V35.8994H86.5635V37.998H90.3369V39.7822ZM97.1318 41.3545C97.1318 41.0036 97.0065 40.7301 96.7559 40.5342C96.5098 40.3382 96.0745 40.1354 95.4502 39.9258C94.8258 39.7161 94.3154 39.5133 93.9189 39.3174C92.6292 38.6839 91.9844 37.8135 91.9844 36.7061C91.9844 36.1546 92.1439 35.6693 92.4629 35.25C92.7865 34.8262 93.2422 34.498 93.8301 34.2656C94.418 34.0286 95.0788 33.9102 95.8125 33.9102C96.528 33.9102 97.1683 34.0378 97.7334 34.293C98.3031 34.5482 98.7451 34.9128 99.0596 35.3867C99.374 35.8561 99.5312 36.3939 99.5312 37H97.1387C97.1387 36.5944 97.0133 36.2799 96.7627 36.0566C96.5166 35.8333 96.1816 35.7217 95.7578 35.7217C95.3294 35.7217 94.9899 35.8174 94.7393 36.0088C94.4932 36.1956 94.3701 36.4349 94.3701 36.7266C94.3701 36.9818 94.5068 37.2142 94.7803 37.4238C95.0537 37.6289 95.5345 37.8431 96.2227 38.0664C96.9108 38.2852 97.4759 38.5221 97.918 38.7773C98.9935 39.3971 99.5312 40.2516 99.5312 41.3408C99.5312 42.2113 99.2031 42.8949 98.5469 43.3916C97.8906 43.8883 96.9906 44.1367 95.8467 44.1367C95.04 44.1367 94.3086 43.9932 93.6523 43.7061C93.0007 43.4144 92.5085 43.0179 92.1758 42.5166C91.8477 42.0107 91.6836 41.4297 91.6836 40.7734H94.0898C94.0898 41.3066 94.2266 41.7008 94.5 41.9561C94.778 42.2067 95.2269 42.332 95.8467 42.332C96.2432 42.332 96.5553 42.2477 96.7832 42.0791C97.0156 41.9059 97.1318 41.6644 97.1318 41.3545ZM108.575 35.8994H105.588V44H103.188V35.8994H100.256V34.0469H108.575V35.8994ZM115.227 44H112.834V34.0469H115.227V44ZM119.451 44H117.059V34.0469H119.451V44ZM123.676 44H121.283V34.0469H123.676V44Z" fill="#022D9A"/>
<defs>
<clipPath id="clip0">
<rect width="68" height="27" fill="white" transform="translate(28.5 0.869629)"/>
</clipPath>
</defs>
</svg>
