<svg width="343" height="56" viewBox="0 0 343 56" fill="none" xmlns="http://www.w3.org/2000/svg">
<g clip-path="url(#clip0)">
<rect width="343" height="56" rx="12" fill="#FFE4E4"/>
<path d="M26.2344 27.6094C26.2344 28.724 26.0417 29.7031 25.6562 30.5469C25.2708 31.3854 24.7188 32.0312 24 32.4844C23.2865 32.9323 22.4635 33.1562 21.5312 33.1562C20.6094 33.1562 19.7865 32.9323 19.0625 32.4844C18.3438 32.0312 17.7865 31.388 17.3906 30.5547C17 29.7214 16.8021 28.7604 16.7969 27.6719V27.0312C16.7969 25.9219 16.9922 24.9427 17.3828 24.0938C17.7786 23.2448 18.3333 22.5964 19.0469 22.1484C19.7656 21.6953 20.5885 21.4688 21.5156 21.4688C22.4427 21.4688 23.263 21.6927 23.9766 22.1406C24.6953 22.5833 25.25 23.224 25.6406 24.0625C26.0312 24.8958 26.2292 25.8672 26.2344 26.9766V27.6094ZM24.2578 27.0156C24.2578 25.7552 24.0182 24.7891 23.5391 24.1172C23.0651 23.4453 22.3906 23.1094 21.5156 23.1094C20.6615 23.1094 19.9922 23.4453 19.5078 24.1172C19.0286 24.7839 18.7839 25.7292 18.7734 26.9531V27.6094C18.7734 28.8594 19.0156 29.8255 19.5 30.5078C19.9896 31.1901 20.6667 31.5312 21.5312 31.5312C22.4062 31.5312 23.0781 31.1979 23.5469 30.5312C24.0208 29.8646 24.2578 28.8906 24.2578 27.6094V27.0156ZM39.1719 33H37.2734V26.0781H33.9766V33H32.0781V24.5469H39.1719V33ZM48.5938 28.8594C48.5938 30.1667 48.2969 31.2109 47.7031 31.9922C47.1094 32.7682 46.3125 33.1562 45.3125 33.1562C44.3854 33.1562 43.6432 32.8516 43.0859 32.2422V36.25H41.1875V24.5469H42.9375L43.0156 25.4062C43.5729 24.7292 44.3307 24.3906 45.2891 24.3906C46.3203 24.3906 47.1276 24.776 47.7109 25.5469C48.2995 26.3125 48.5938 27.3776 48.5938 28.7422V28.8594ZM46.7031 28.6953C46.7031 27.8516 46.5339 27.1823 46.1953 26.6875C45.862 26.1927 45.3828 25.9453 44.7578 25.9453C43.9818 25.9453 43.4245 26.2656 43.0859 26.9062V30.6562C43.4297 31.3125 43.9922 31.6406 44.7734 31.6406C45.3776 31.6406 45.849 31.3984 46.1875 30.9141C46.5312 30.4245 46.7031 29.6849 46.7031 28.6953ZM55.4844 24.5469H57.375V33H55.4844V27.3594L52.1719 33H50.2812V24.5469H52.1719V30.1875L55.4844 24.5469ZM62.3516 30.2812L64.0703 24.5469H66.0938L62.7344 34.2812C62.2188 35.7031 61.3438 36.4141 60.1094 36.4141C59.8333 36.4141 59.5286 36.3672 59.1953 36.2734V34.8047L59.5547 34.8281C60.0339 34.8281 60.3932 34.7396 60.6328 34.5625C60.8776 34.3906 61.0703 34.099 61.2109 33.6875L61.4844 32.9609L58.5156 24.5469H60.5625L62.3516 30.2812ZM72.2109 30.6641L74.7109 24.5469H77.0859V33H75.1875V27.4062L72.8594 33H71.5703L69.2344 27.375V33H67.3359V24.5469H69.7266L72.2109 30.6641ZM86.3828 33H84.4844V29.5859H81.1953V33H79.2969V24.5469H81.1953V28.0703H84.4844V24.5469H86.3828V33ZM88.0547 28.6953C88.0547 27.8672 88.2188 27.1224 88.5469 26.4609C88.875 25.7943 89.3359 25.2839 89.9297 24.9297C90.5234 24.5703 91.2057 24.3906 91.9766 24.3906C93.1172 24.3906 94.0417 24.7578 94.75 25.4922C95.4635 26.2266 95.849 27.2005 95.9062 28.4141L95.9141 28.8594C95.9141 29.6927 95.7526 30.4375 95.4297 31.0938C95.112 31.75 94.6536 32.2578 94.0547 32.6172C93.4609 32.9766 92.7734 33.1562 91.9922 33.1562C90.7995 33.1562 89.8438 32.7604 89.125 31.9688C88.4115 31.1719 88.0547 30.112 88.0547 28.7891V28.6953ZM89.9531 28.8594C89.9531 29.7292 90.1328 30.4115 90.4922 30.9062C90.8516 31.3958 91.3516 31.6406 91.9922 31.6406C92.6328 31.6406 93.1302 31.3906 93.4844 30.8906C93.8438 30.3906 94.0234 29.6589 94.0234 28.6953C94.0234 27.8411 93.8385 27.1641 93.4688 26.6641C93.1042 26.1641 92.6068 25.9141 91.9766 25.9141C91.3568 25.9141 90.8646 26.1615 90.5 26.6562C90.1354 27.1458 89.9531 27.8802 89.9531 28.8594ZM104.789 29.6016H103.781V33H101.883V29.6016H100.883L98.9375 33H96.6094L99.4141 28.6016L96.7578 24.5469H99.0781L100.992 27.8672H101.883V24.5469H103.781V27.8672H104.68L106.602 24.5469H108.922L106.273 28.5781L109.094 33H106.734L104.789 29.6016ZM113.836 33.1562C112.633 33.1562 111.656 32.7786 110.906 32.0234C110.161 31.263 109.789 30.2526 109.789 28.9922V28.7578C109.789 27.9141 109.951 27.1615 110.273 26.5C110.602 25.8333 111.06 25.3151 111.648 24.9453C112.237 24.5755 112.893 24.3906 113.617 24.3906C114.768 24.3906 115.656 24.7578 116.281 25.4922C116.911 26.2266 117.227 27.2656 117.227 28.6094V29.375H111.703C111.76 30.0729 111.992 30.625 112.398 31.0312C112.81 31.4375 113.326 31.6406 113.945 31.6406C114.815 31.6406 115.523 31.2891 116.07 30.5859L117.094 31.5625C116.755 32.0677 116.302 32.4609 115.734 32.7422C115.172 33.0182 114.539 33.1562 113.836 33.1562ZM113.609 25.9141C113.089 25.9141 112.667 26.0964 112.344 26.4609C112.026 26.8255 111.823 27.3333 111.734 27.9844H115.352V27.8438C115.31 27.2083 115.141 26.7292 114.844 26.4062C114.547 26.0781 114.135 25.9141 113.609 25.9141ZM125.867 33H123.969V29.5859H120.68V33H118.781V24.5469H120.68V28.0703H123.969V24.5469H125.867V33ZM133.172 24.5469H135.062V33H133.172V27.3594L129.859 33H127.969V24.5469H129.859V30.1875L133.172 24.5469ZM142.359 24.5469H144.25V33H142.359V27.3594L139.047 33H137.156V24.5469H139.047V30.1875L142.359 24.5469ZM153.727 31.6406C154.201 31.6406 154.594 31.5026 154.906 31.2266C155.219 30.9505 155.385 30.6094 155.406 30.2031H157.195C157.174 30.7292 157.01 31.2214 156.703 31.6797C156.396 32.1328 155.979 32.4922 155.453 32.7578C154.927 33.0234 154.359 33.1562 153.75 33.1562C152.568 33.1562 151.63 32.7734 150.938 32.0078C150.245 31.2422 149.898 30.1849 149.898 28.8359V28.6406C149.898 27.3542 150.242 26.3255 150.93 25.5547C151.617 24.7786 152.555 24.3906 153.742 24.3906C154.747 24.3906 155.565 24.6849 156.195 25.2734C156.831 25.8568 157.164 26.625 157.195 27.5781H155.406C155.385 27.0938 155.219 26.6953 154.906 26.3828C154.599 26.0703 154.206 25.9141 153.727 25.9141C153.112 25.9141 152.638 26.138 152.305 26.5859C151.971 27.0286 151.802 27.7031 151.797 28.6094V28.9141C151.797 29.8307 151.961 30.5156 152.289 30.9688C152.622 31.4167 153.102 31.6406 153.727 31.6406ZM166.031 28.8594C166.031 30.1667 165.734 31.2109 165.141 31.9922C164.547 32.7682 163.75 33.1562 162.75 33.1562C161.823 33.1562 161.081 32.8516 160.523 32.2422V36.25H158.625V24.5469H160.375L160.453 25.4062C161.01 24.7292 161.768 24.3906 162.727 24.3906C163.758 24.3906 164.565 24.776 165.148 25.5469C165.737 26.3125 166.031 27.3776 166.031 28.7422V28.8594ZM164.141 28.6953C164.141 27.8516 163.971 27.1823 163.633 26.6875C163.299 26.1927 162.82 25.9453 162.195 25.9453C161.419 25.9453 160.862 26.2656 160.523 26.9062V30.6562C160.867 31.3125 161.43 31.6406 162.211 31.6406C162.815 31.6406 163.286 31.3984 163.625 30.9141C163.969 30.4245 164.141 29.6849 164.141 28.6953ZM171.367 33.1562C170.164 33.1562 169.188 32.7786 168.438 32.0234C167.693 31.263 167.32 30.2526 167.32 28.9922V28.7578C167.32 27.9141 167.482 27.1615 167.805 26.5C168.133 25.8333 168.591 25.3151 169.18 24.9453C169.768 24.5755 170.424 24.3906 171.148 24.3906C172.299 24.3906 173.188 24.7578 173.812 25.4922C174.443 26.2266 174.758 27.2656 174.758 28.6094V29.375H169.234C169.292 30.0729 169.523 30.625 169.93 31.0312C170.341 31.4375 170.857 31.6406 171.477 31.6406C172.346 31.6406 173.055 31.2891 173.602 30.5859L174.625 31.5625C174.286 32.0677 173.833 32.4609 173.266 32.7422C172.703 33.0182 172.07 33.1562 171.367 33.1562ZM171.141 25.9141C170.62 25.9141 170.198 26.0964 169.875 26.4609C169.557 26.8255 169.354 27.3333 169.266 27.9844H172.883V27.8438C172.841 27.2083 172.672 26.7292 172.375 26.4062C172.078 26.0781 171.667 25.9141 171.141 25.9141ZM176.273 31.4844C176.799 30.8958 177.151 30.3385 177.328 29.8125C177.51 29.2812 177.62 28.6042 177.656 27.7812L177.766 24.5469H183.633V31.4844H184.805V35.5156H182.914V33H177.492V35.5156H175.57L175.578 31.4844H176.273ZM178.5 31.4844H181.742V26.1797H179.609L179.555 27.7969C179.482 29.349 179.13 30.5781 178.5 31.4844ZM189.633 31.6406C190.107 31.6406 190.5 31.5026 190.812 31.2266C191.125 30.9505 191.292 30.6094 191.312 30.2031H193.102C193.081 30.7292 192.917 31.2214 192.609 31.6797C192.302 32.1328 191.885 32.4922 191.359 32.7578C190.833 33.0234 190.266 33.1562 189.656 33.1562C188.474 33.1562 187.536 32.7734 186.844 32.0078C186.151 31.2422 185.805 30.1849 185.805 28.8359V28.6406C185.805 27.3542 186.148 26.3255 186.836 25.5547C187.523 24.7786 188.461 24.3906 189.648 24.3906C190.654 24.3906 191.471 24.6849 192.102 25.2734C192.737 25.8568 193.07 26.625 193.102 27.5781H191.312C191.292 27.0938 191.125 26.6953 190.812 26.3828C190.505 26.0703 190.112 25.9141 189.633 25.9141C189.018 25.9141 188.544 26.138 188.211 26.5859C187.878 27.0286 187.708 27.7031 187.703 28.6094V28.9141C187.703 29.8307 187.867 30.5156 188.195 30.9688C188.529 31.4167 189.008 31.6406 189.633 31.6406ZM201.188 26.0547H198.445V33H196.547V26.0547H193.836V24.5469H201.188V26.0547ZM202.602 33V24.5469H206.031C207.188 24.5469 208.068 24.75 208.672 25.1562C209.276 25.5573 209.578 26.1354 209.578 26.8906C209.578 27.2812 209.456 27.6328 209.211 27.9453C208.971 28.2526 208.615 28.4896 208.141 28.6562C208.693 28.7708 209.13 29.0026 209.453 29.3516C209.776 29.7005 209.938 30.112 209.938 30.5859C209.938 31.3724 209.646 31.9714 209.062 32.3828C208.484 32.7943 207.651 33 206.562 33H202.602ZM204.5 29.3984V31.5H206.578C207.552 31.5 208.039 31.151 208.039 30.4531C208.039 29.75 207.544 29.3984 206.555 29.3984H204.5ZM204.5 28.0391H206.062C207.141 28.0391 207.68 27.7214 207.68 27.0859C207.68 26.4193 207.169 26.0755 206.148 26.0547H204.5V28.0391Z" fill="#9C1D1D"/>
<path d="M249.06 46.7719C252.011 45.7454 255.732 48.2476 254.834 54.1502C256.759 52.9953 263.816 54.7276 265.292 58.7697C266.062 55.0484 271.002 52.9953 273.568 52.8029C274.402 51.648 274.723 50.8781 274.723 50.8781C274.723 50.8781 264.265 55.6259 262.148 43.1149C259.004 42.0242 252.139 43.4998 249.06 46.7719Z" fill="#F7CC74"/>
<path d="M274.98 50.4932C271.515 52.9312 262.597 50.044 262.725 42.5374C259.133 41.1901 251.177 43.3715 247.391 47.7343C246.686 48.7609 252.973 43.4998 261.571 43.4357C260.48 47.221 268.243 55.8825 274.146 51.3914C274.467 51.1347 275.044 50.814 274.98 50.4932Z" fill="#853232"/>
<path d="M262.212 43.1149C260.544 43.9489 255.283 51.8405 254.962 55.8825C254.321 58.1922 253.102 48.9533 261.186 42.7941C261.186 42.5374 262.212 43.1149 262.212 43.1149Z" fill="#853232"/>
<path d="M262.212 43.1149C261.571 44.6547 263.944 54.9843 265.548 58.513C265.613 60.3736 261.25 55.1126 261.314 43.179C261.763 42.8582 262.212 43.1149 262.212 43.1149Z" fill="#853232"/>
<path d="M303.21 28.1016C304.108 30.4114 305.199 31.5021 305.648 27.6525C307.059 30.1547 307.829 30.1547 308.086 26.9468C309.497 30.0264 310.588 29.2565 310.396 25.5353C308.086 25.7919 304.365 27.0109 303.21 28.1016Z" fill="#FFC756"/>
<path d="M285.181 15.0774C283.577 11.8053 275.429 10.7787 273.632 5.32521C272.028 7.82741 276.263 11.9336 271.515 12.4469C275.172 13.6017 277.289 16.0398 274.787 18.0287C277.61 21.1725 285.181 15.0774 285.181 15.0774Z" fill="#853232"/>
<path d="M272.028 26.9468C271.708 18.6061 279.278 13.0884 288.582 13.5376C297.885 13.9867 308.727 11.8053 310.011 13.9867C311.294 16.1681 311.294 25.3428 311.294 25.3428C307.508 28.8074 303.274 27.0751 301.991 30.2189C305.904 31.1813 311.294 30.2189 311.294 30.2189C311.294 30.2189 312.577 32.5928 310.524 33.0419C308.471 33.491 295.831 36.2498 290.891 36.7631C286.657 39.4578 287.555 41.575 288.197 61.0794C288.838 80.5837 284.86 108.814 242.387 110.674C199.721 112.599 198.438 80.3913 202.544 66.0838C206.65 51.7763 223.717 49.3383 233.148 42.4733C245.595 33.4268 237.254 23.9313 224.038 22.7123C222.754 21.3008 241.617 21.6216 246.942 31.5021C252.268 41.3826 243.991 47.2852 232.186 54.6635C220.38 62.0418 214.735 70.2541 219.931 76.2209C243.414 78.4665 271.387 62.2342 272.028 26.9468Z" fill="#E33535"/>
<path d="M283.513 37.0197C277.546 45.4246 285.951 72.1789 274.916 85.524C263.88 98.869 247.52 104.323 230.197 103.168C218.328 102.398 210.179 100.088 205.303 95.3403C210.757 104.772 221.792 111.573 242.259 110.674C284.796 108.814 288.71 80.5837 288.068 61.0794C287.427 41.575 286.785 39.522 291.02 36.8914C287.619 38.0463 283.513 37.0197 283.513 37.0197Z" fill="#FFDE9C"/>
<path d="M312.064 28.2941C321.11 27.1393 329.836 24.6371 329.836 11.8694C329.836 0.513272 335.738 0 335.738 0C334.263 4.74777 334.904 9.55969 334.904 9.55969C340.807 2.823 355.82 -1.02654 361.659 5.13272C358.194 4.29865 353.895 5.58183 351.137 7.44245C360.568 7.44245 363.968 14.2433 363.648 20.0176C360.504 13.4092 351.137 11.6128 345.619 17.3871C340.037 23.1614 332.595 28.4224 326.628 29.1282C331.247 30.668 336.252 28.1016 336.252 28.1016C332.274 35.0308 318.351 32.4003 312.064 28.2941Z" fill="#E6692E"/>
<path d="M286.732 22.1815C286.667 22.2457 286.154 21.989 285.577 21.3474C285.256 21.0266 284.935 20.5775 284.743 19.9359C284.679 19.6152 284.614 19.2944 284.679 18.9094C284.743 18.5244 284.935 18.1395 285.256 17.8829C285.898 17.3696 286.603 17.2413 287.245 17.2413C287.886 17.2413 288.4 17.4337 288.785 17.6904C289.619 18.1395 289.875 18.7169 289.747 18.7811C289.619 18.8452 289.234 18.5244 288.528 18.2678C288.143 18.1395 287.694 18.0753 287.181 18.0753C286.667 18.0753 286.154 18.2678 285.769 18.5886C285.384 18.9094 285.32 19.3585 285.448 19.8718C285.577 20.3209 285.769 20.77 286.026 21.0908C286.475 21.6682 286.796 22.0532 286.732 22.1815Z" fill="#7D3F3F"/>
<path d="M303.787 19.376C303.659 19.376 303.531 19.1194 303.274 18.7986C302.953 18.4778 302.504 18.0287 301.991 17.6437C301.478 17.2588 300.9 17.0021 300.644 17.0663C300.515 17.0663 300.387 17.1946 300.323 17.3229C300.259 17.4513 300.194 17.5154 300.13 17.5154C300.066 17.5154 300.002 17.4513 300.002 17.2588C300.002 17.1305 300.002 16.8097 300.323 16.553C300.644 16.2964 301.093 16.3606 301.413 16.4247C301.798 16.553 302.119 16.6813 302.44 16.938C303.082 17.3871 303.531 17.9645 303.723 18.4778C303.98 18.9911 303.851 19.376 303.787 19.376Z" fill="#7D3F3F"/>
<path d="M277.803 16.938C272.734 12.511 263.239 15.9114 258.491 11.8694C258.491 14.3716 270.168 15.6548 262.982 22.1349C266.318 20.2742 268.628 21.8141 268.307 24.6371C272.606 20.1459 275.686 18.8627 276.712 19.0552C278.38 18.8627 278.765 17.5154 277.803 16.938Z" fill="#A34646"/>
<path d="M294.612 36.1857C294.612 36.314 293.65 36.6348 292.046 36.9556C290.442 37.2764 288.132 37.5972 285.566 37.4047C284.283 37.2764 283.064 37.0839 281.973 36.6348C280.882 36.2498 280.048 35.6083 279.407 35.0308C278.188 33.7476 277.995 32.6569 278.059 32.6569C278.188 32.5928 278.637 33.5552 279.792 34.5817C280.433 35.095 281.203 35.5441 282.23 35.8649C283.192 36.2498 284.347 36.3782 285.566 36.5065C288.004 36.699 290.25 36.4423 291.918 36.314C293.586 36.1215 294.548 36.0574 294.612 36.1857Z" fill="#7D3F3F"/>
<path d="M225.064 22.0707C224.679 18.0287 229.299 19.3119 230.197 21.1083C230.261 16.8738 233.982 19.761 235.137 21.7499C236.035 17.3229 239.692 22.0707 240.27 24.8937C241.617 20.98 243.285 25.6636 242.708 29.7056C239.372 24.5087 234.303 22.7764 225.064 22.0707Z" fill="#E8B348"/>
<path d="M242.451 29.1282C242.772 26.9468 245.338 29.3848 242.9 35.2875C242.259 32.5286 243.029 31.4379 242.451 29.1282Z" fill="#E8B348"/>
<path d="M242.965 35.2874C241.938 31.5021 238.409 32.8494 238.409 39.2011C236.998 33.8759 233.982 37.7896 233.084 42.5374C231.737 36.6989 227.887 39.3295 227.181 44.3339C227.053 37.533 221.343 43.8848 220.701 47.7985C219.996 42.2166 215.633 46.6436 214.606 50.8139C213.58 44.0131 210.436 50.4931 210.5 53.5728C209.153 46.7719 207.292 54.0219 207.42 57.4865C205.752 53.0595 204.533 59.5396 206.073 64.4156C207.805 58.2564 212.232 52.6104 219.162 49.7874C226.091 46.9644 239.308 41.7675 242.965 35.2874Z" fill="#E8B348"/>
<path d="M205.945 64.0307C206.266 60.5661 208.768 61.1435 208.255 67.367C209.153 63.1325 212.746 68.8426 212.425 72.5639C213.066 67.4311 217.173 69.0351 217.75 75.9001C218.392 70.6391 225.257 70.7032 225.962 76.5417C226.219 70.6391 232.314 69.1634 233.662 75.7076C233.662 68.1369 238.153 68.1369 240.976 72.4997C239.821 63.7099 245.403 63.3891 248.803 69.2917C247.007 59.6679 252.524 60.9511 255.283 64.7365C252.203 55.3051 258.106 56.5241 261.122 59.5396C256.566 50.7498 261.25 51.1347 265.292 52.9953C258.94 48.0551 264.714 46.9644 268.372 47.4777C262.02 44.3339 266.703 41.6392 269.976 41.1901C264.009 40.2277 268.243 35.8007 270.938 35.1591C265.356 34.4534 269.783 30.668 272.093 29.064C271.066 54.7276 256.566 69.2917 237.511 74.9377C218.392 80.5196 208.319 73.1413 205.945 64.0307Z" fill="#E8B348"/>
<path d="M287.17 55.69C287.234 55.8184 286.978 56.0108 286.528 56.1392C286.079 56.3316 285.374 56.3958 284.668 56.2675C283.962 56.1391 283.385 55.8825 282.936 55.69C282.551 55.4976 282.294 55.3051 282.294 55.2409C282.294 55.1126 282.615 55.1126 283.064 55.1126C283.513 55.1768 284.155 55.3051 284.796 55.4334C286.015 55.7542 287.106 55.4976 287.17 55.69Z" fill="#CC9A37"/>
<path d="M286.785 47.991C286.914 48.1834 285.887 48.825 284.475 48.7609C283.77 48.6967 283.128 48.5042 282.743 48.1834C282.358 47.9268 282.23 47.606 282.294 47.5418C282.358 47.4777 282.615 47.5418 283 47.6702C283.385 47.7985 283.898 47.8626 284.475 47.9268C285.695 47.991 286.657 47.7985 286.785 47.991Z" fill="#CC9A37"/>
<path d="M287.94 41.1259C288.004 41.3826 286.785 41.8317 285.31 41.7675C284.54 41.7034 283.898 41.575 283.385 41.3184C282.936 41.1259 282.679 40.8693 282.743 40.741C282.807 40.6127 283.128 40.6768 283.577 40.741C284.026 40.8051 284.668 40.8693 285.374 40.8693C286.785 40.9976 287.876 40.9334 287.94 41.1259Z" fill="#CC9A37"/>
<path d="M331.76 21.1725C334.583 16.1039 337.342 7.63492 347.8 5.96678C346.517 6.73669 345.106 8.14819 345.106 8.14819C349.276 7.76323 351.971 8.78978 353.767 11.0353C347.095 10.0088 340.165 14.6282 340.55 14.4358C344.143 13.4734 344.977 14.3075 344.977 14.3075C340.614 15.9114 337.856 19.6968 331.76 21.1725Z" fill="#FBB03B"/>
<path d="M276.776 17.3871C276.776 17.5154 276.07 17.6437 274.98 17.9004C273.889 18.157 272.349 18.4778 270.617 18.9269C268.949 19.376 267.409 19.8251 266.382 20.2101C265.356 20.595 264.714 20.98 264.65 20.8517C264.586 20.7875 265.099 20.2101 266.126 19.6327C267.152 19.0552 268.692 18.542 270.424 18.0928C272.157 17.6437 273.761 17.3871 274.916 17.2588C276.07 17.1946 276.776 17.3229 276.776 17.3871Z" fill="#853232"/>
<path d="M275.557 17.1946C275.493 17.3871 272.862 17.1946 269.654 16.6814C268.051 16.4247 266.575 16.0398 265.548 15.6548C264.522 15.2699 263.944 14.9491 263.944 14.8849C264.008 14.7566 264.65 14.8849 265.677 15.0774C266.703 15.2699 268.179 15.5907 269.783 15.8473C272.991 16.3606 275.621 16.938 275.557 17.1946Z" fill="#853232"/>
<path d="M275.557 18.3495C275.686 18.542 274.274 19.5043 272.413 20.2743C270.553 21.0442 269.077 21.6858 268.949 21.4933C268.821 21.3008 270.168 20.2743 272.093 19.5043C273.889 18.7344 275.429 18.157 275.557 18.3495Z" fill="#853232"/>
<path d="M236.998 56.7166C240.912 54.4068 246.878 56.8449 247.327 65.5705C249.765 63.3891 260.288 63.774 263.495 69.0992C263.56 63.6457 269.976 59.2188 273.568 58.2564C274.467 56.3958 274.659 55.1767 274.659 55.1767C274.659 55.1767 261.186 64.9289 254.577 47.7984C249.701 47.0927 240.462 51.1989 236.998 56.7166Z" fill="#FFDE9C"/>
<path d="M274.852 54.5352C270.617 59.0263 257.144 57.4865 255.219 46.7719C249.765 45.8737 239.051 51.263 234.945 58.513C234.239 60.1812 241.617 50.9422 253.807 48.3117C253.358 54.0219 266.96 64.0949 274.018 56.0108C274.338 55.6259 275.108 55.0484 274.852 54.5352Z" fill="#A34646"/>
<path d="M254.577 47.7985C252.46 49.4666 247.263 62.1701 247.969 68.0086C247.777 71.4731 243.35 58.7055 253.038 47.6701C252.973 47.221 254.577 47.7985 254.577 47.7985Z" fill="#A34646"/>
<path d="M254.577 47.7985C254.128 50.1723 260.416 64.0949 263.688 68.7143C264.265 71.2807 256.63 65.1214 253.294 48.1834C253.936 47.5418 254.577 47.7985 254.577 47.7985Z" fill="#A34646"/>
<path d="M290.655 20.3921C290.384 21.463 289.296 22.1115 288.225 21.8407C287.154 21.5699 285.683 20.2742 285.954 19.2034C286.225 18.1325 287.596 18.7385 288.667 19.0093C289.738 19.2801 290.925 19.3213 290.655 20.3921Z" fill="#FFF9F9"/>
<ellipse cx="289.223" cy="20.5786" rx="0.263083" ry="1.07588" transform="rotate(14.1921 289.223 20.5786)" fill="#633F7D"/>
</g>
<defs>
<clipPath id="clip0">
<rect width="343" height="56" rx="12" fill="white"/>
</clipPath>
</defs>
</svg>
