<svg width="343" height="56" viewBox="0 0 343 56" fill="none" xmlns="http://www.w3.org/2000/svg">
<g clip-path="url(#clip0)">
<rect width="343" height="56" rx="12" fill="#D9FEDA"/>
<path d="M26.2344 27.6094C26.2344 28.724 26.0417 29.7031 25.6562 30.5469C25.2708 31.3854 24.7188 32.0312 24 32.4844C23.2865 32.9323 22.4635 33.1562 21.5312 33.1562C20.6094 33.1562 19.7865 32.9323 19.0625 32.4844C18.3438 32.0312 17.7865 31.388 17.3906 30.5547C17 29.7214 16.8021 28.7604 16.7969 27.6719V27.0312C16.7969 25.9219 16.9922 24.9427 17.3828 24.0938C17.7786 23.2448 18.3333 22.5964 19.0469 22.1484C19.7656 21.6953 20.5885 21.4688 21.5156 21.4688C22.4427 21.4688 23.263 21.6927 23.9766 22.1406C24.6953 22.5833 25.25 23.224 25.6406 24.0625C26.0312 24.8958 26.2292 25.8672 26.2344 26.9766V27.6094ZM24.2578 27.0156C24.2578 25.7552 24.0182 24.7891 23.5391 24.1172C23.0651 23.4453 22.3906 23.1094 21.5156 23.1094C20.6615 23.1094 19.9922 23.4453 19.5078 24.1172C19.0286 24.7839 18.7839 25.7292 18.7734 26.9531V27.6094C18.7734 28.8594 19.0156 29.8255 19.5 30.5078C19.9896 31.1901 20.6667 31.5312 21.5312 31.5312C22.4062 31.5312 23.0781 31.1979 23.5469 30.5312C24.0208 29.8646 24.2578 28.8906 24.2578 27.6094V27.0156ZM35.4766 31.6406C35.9505 31.6406 36.3438 31.5026 36.6562 31.2266C36.9688 30.9505 37.1354 30.6094 37.1562 30.2031H38.9453C38.9245 30.7292 38.7604 31.2214 38.4531 31.6797C38.1458 32.1328 37.7292 32.4922 37.2031 32.7578C36.6771 33.0234 36.1094 33.1562 35.5 33.1562C34.3177 33.1562 33.3802 32.7734 32.6875 32.0078C31.9948 31.2422 31.6484 30.1849 31.6484 28.8359V28.6406C31.6484 27.3542 31.9922 26.3255 32.6797 25.5547C33.3672 24.7786 34.3047 24.3906 35.4922 24.3906C36.4974 24.3906 37.3151 24.6849 37.9453 25.2734C38.5807 25.8568 38.9141 26.625 38.9453 27.5781H37.1562C37.1354 27.0938 36.9688 26.6953 36.6562 26.3828C36.349 26.0703 35.9557 25.9141 35.4766 25.9141C34.862 25.9141 34.388 26.138 34.0547 26.5859C33.7214 27.0286 33.5521 27.7031 33.5469 28.6094V28.9141C33.5469 29.8307 33.7109 30.5156 34.0391 30.9688C34.3724 31.4167 34.8516 31.6406 35.4766 31.6406ZM44.3594 25.0156C45.4219 25.0156 46.2734 25.3724 46.9141 26.0859C47.5547 26.7943 47.875 27.7578 47.875 28.9766V29.0703C47.875 30.2891 47.526 31.276 46.8281 32.0312C46.1354 32.7865 45.1927 33.1641 44 33.1641C42.8385 33.1641 41.901 32.7786 41.1875 32.0078C40.474 31.237 40.1172 30.1849 40.1172 28.8516V28.3047C40.1172 26.4818 40.4401 25.0391 41.0859 23.9766C41.7318 22.9141 42.6953 22.25 43.9766 21.9844C44.6953 21.8385 45.1589 21.6849 45.3672 21.5234C45.5807 21.3568 45.6875 21.1328 45.6875 20.8516H47.2188C47.2188 21.3776 47.1328 21.8047 46.9609 22.1328C46.7891 22.4609 46.526 22.7292 46.1719 22.9375C45.8177 23.1406 45.2083 23.3333 44.3438 23.5156C43.5521 23.6823 42.9479 23.9792 42.5312 24.4062C42.1198 24.8333 41.8438 25.4245 41.7031 26.1797C42.4583 25.4036 43.3438 25.0156 44.3594 25.0156ZM43.9844 26.5391C43.3698 26.5391 42.888 26.7474 42.5391 27.1641C42.1901 27.5755 42.0156 28.2109 42.0156 29.0703C42.0156 29.8828 42.1875 30.5156 42.5312 30.9688C42.875 31.4219 43.3646 31.6484 44 31.6484C44.6302 31.6484 45.1172 31.4219 45.4609 30.9688C45.8099 30.5104 45.9844 29.8229 45.9844 28.9062C45.9844 28.1771 45.8099 27.6016 45.4609 27.1797C45.1172 26.7526 44.625 26.5391 43.9844 26.5391ZM53.0859 33.1562C51.8828 33.1562 50.9062 32.7786 50.1562 32.0234C49.4115 31.263 49.0391 30.2526 49.0391 28.9922V28.7578C49.0391 27.9141 49.2005 27.1615 49.5234 26.5C49.8516 25.8333 50.3099 25.3151 50.8984 24.9453C51.487 24.5755 52.1432 24.3906 52.8672 24.3906C54.0182 24.3906 54.9062 24.7578 55.5312 25.4922C56.1615 26.2266 56.4766 27.2656 56.4766 28.6094V29.375H50.9531C51.0104 30.0729 51.2422 30.625 51.6484 31.0312C52.0599 31.4375 52.5755 31.6406 53.1953 31.6406C54.0651 31.6406 54.7734 31.2891 55.3203 30.5859L56.3438 31.5625C56.0052 32.0677 55.5521 32.4609 54.9844 32.7422C54.4219 33.0182 53.7891 33.1562 53.0859 33.1562ZM52.8594 25.9141C52.3385 25.9141 51.9167 26.0964 51.5938 26.4609C51.276 26.8255 51.0729 27.3333 50.9844 27.9844H54.6016V27.8438C54.5599 27.2083 54.3906 26.7292 54.0938 26.4062C53.7969 26.0781 53.3854 25.9141 52.8594 25.9141ZM65.3594 28.8594C65.3594 30.1667 65.0625 31.2109 64.4688 31.9922C63.875 32.7682 63.0781 33.1562 62.0781 33.1562C61.151 33.1562 60.4089 32.8516 59.8516 32.2422V36.25H57.9531V24.5469H59.7031L59.7812 25.4062C60.3385 24.7292 61.0964 24.3906 62.0547 24.3906C63.0859 24.3906 63.8932 24.776 64.4766 25.5469C65.0651 26.3125 65.3594 27.3776 65.3594 28.7422V28.8594ZM63.4688 28.6953C63.4688 27.8516 63.2995 27.1823 62.9609 26.6875C62.6276 26.1927 62.1484 25.9453 61.5234 25.9453C60.7474 25.9453 60.1901 26.2656 59.8516 26.9062V30.6562C60.1953 31.3125 60.7578 31.6406 61.5391 31.6406C62.1432 31.6406 62.6146 31.3984 62.9531 30.9141C63.2969 30.4245 63.4688 29.6849 63.4688 28.6953ZM70.6953 33.1562C69.4922 33.1562 68.5156 32.7786 67.7656 32.0234C67.0208 31.263 66.6484 30.2526 66.6484 28.9922V28.7578C66.6484 27.9141 66.8099 27.1615 67.1328 26.5C67.4609 25.8333 67.9193 25.3151 68.5078 24.9453C69.0964 24.5755 69.7526 24.3906 70.4766 24.3906C71.6276 24.3906 72.5156 24.7578 73.1406 25.4922C73.7708 26.2266 74.0859 27.2656 74.0859 28.6094V29.375H68.5625C68.6198 30.0729 68.8516 30.625 69.2578 31.0312C69.6693 31.4375 70.1849 31.6406 70.8047 31.6406C71.6745 31.6406 72.3828 31.2891 72.9297 30.5859L73.9531 31.5625C73.6146 32.0677 73.1615 32.4609 72.5938 32.7422C72.0312 33.0182 71.3984 33.1562 70.6953 33.1562ZM70.4688 25.9141C69.9479 25.9141 69.526 26.0964 69.2031 26.4609C68.8854 26.8255 68.6823 27.3333 68.5938 27.9844H72.2109V27.8438C72.1693 27.2083 72 26.7292 71.7031 26.4062C71.4062 26.0781 70.9948 25.9141 70.4688 25.9141ZM83.0078 29.6016H82V33H80.1016V29.6016H79.1016L77.1562 33H74.8281L77.6328 28.6016L74.9766 24.5469H77.2969L79.2109 27.8672H80.1016V24.5469H82V27.8672H82.8984L84.8203 24.5469H87.1406L84.4922 28.5781L87.3125 33H84.9531L83.0078 29.6016ZM92.0547 33.1562C90.8516 33.1562 89.875 32.7786 89.125 32.0234C88.3802 31.263 88.0078 30.2526 88.0078 28.9922V28.7578C88.0078 27.9141 88.1693 27.1615 88.4922 26.5C88.8203 25.8333 89.2786 25.3151 89.8672 24.9453C90.4557 24.5755 91.112 24.3906 91.8359 24.3906C92.987 24.3906 93.875 24.7578 94.5 25.4922C95.1302 26.2266 95.4453 27.2656 95.4453 28.6094V29.375H89.9219C89.9792 30.0729 90.2109 30.625 90.6172 31.0312C91.0286 31.4375 91.5443 31.6406 92.1641 31.6406C93.0339 31.6406 93.7422 31.2891 94.2891 30.5859L95.3125 31.5625C94.974 32.0677 94.5208 32.4609 93.9531 32.7422C93.3906 33.0182 92.7578 33.1562 92.0547 33.1562ZM91.8281 25.9141C91.3073 25.9141 90.8854 26.0964 90.5625 26.4609C90.2448 26.8255 90.0417 27.3333 89.9531 27.9844H93.5703V27.8438C93.5286 27.2083 93.3594 26.7292 93.0625 26.4062C92.7656 26.0781 92.3542 25.9141 91.8281 25.9141ZM104.086 33H102.188V29.5859H98.8984V33H97V24.5469H98.8984V28.0703H102.188V24.5469H104.086V33ZM111.391 24.5469H113.281V33H111.391V27.3594L108.078 33H106.188V24.5469H108.078V30.1875L111.391 24.5469ZM120.578 24.5469H122.469V33H120.578V27.3594L117.266 33H115.375V24.5469H117.266V30.1875L120.578 24.5469ZM131.945 31.6406C132.419 31.6406 132.812 31.5026 133.125 31.2266C133.438 30.9505 133.604 30.6094 133.625 30.2031H135.414C135.393 30.7292 135.229 31.2214 134.922 31.6797C134.615 32.1328 134.198 32.4922 133.672 32.7578C133.146 33.0234 132.578 33.1562 131.969 33.1562C130.786 33.1562 129.849 32.7734 129.156 32.0078C128.464 31.2422 128.117 30.1849 128.117 28.8359V28.6406C128.117 27.3542 128.461 26.3255 129.148 25.5547C129.836 24.7786 130.773 24.3906 131.961 24.3906C132.966 24.3906 133.784 24.6849 134.414 25.2734C135.049 25.8568 135.383 26.625 135.414 27.5781H133.625C133.604 27.0938 133.438 26.6953 133.125 26.3828C132.818 26.0703 132.424 25.9141 131.945 25.9141C131.331 25.9141 130.857 26.138 130.523 26.5859C130.19 27.0286 130.021 27.7031 130.016 28.6094V28.9141C130.016 29.8307 130.18 30.5156 130.508 30.9688C130.841 31.4167 131.32 31.6406 131.945 31.6406ZM144.25 28.8594C144.25 30.1667 143.953 31.2109 143.359 31.9922C142.766 32.7682 141.969 33.1562 140.969 33.1562C140.042 33.1562 139.299 32.8516 138.742 32.2422V36.25H136.844V24.5469H138.594L138.672 25.4062C139.229 24.7292 139.987 24.3906 140.945 24.3906C141.977 24.3906 142.784 24.776 143.367 25.5469C143.956 26.3125 144.25 27.3776 144.25 28.7422V28.8594ZM142.359 28.6953C142.359 27.8516 142.19 27.1823 141.852 26.6875C141.518 26.1927 141.039 25.9453 140.414 25.9453C139.638 25.9453 139.081 26.2656 138.742 26.9062V30.6562C139.086 31.3125 139.648 31.6406 140.43 31.6406C141.034 31.6406 141.505 31.3984 141.844 30.9141C142.188 30.4245 142.359 29.6849 142.359 28.6953ZM149.586 33.1562C148.383 33.1562 147.406 32.7786 146.656 32.0234C145.911 31.263 145.539 30.2526 145.539 28.9922V28.7578C145.539 27.9141 145.701 27.1615 146.023 26.5C146.352 25.8333 146.81 25.3151 147.398 24.9453C147.987 24.5755 148.643 24.3906 149.367 24.3906C150.518 24.3906 151.406 24.7578 152.031 25.4922C152.661 26.2266 152.977 27.2656 152.977 28.6094V29.375H147.453C147.51 30.0729 147.742 30.625 148.148 31.0312C148.56 31.4375 149.076 31.6406 149.695 31.6406C150.565 31.6406 151.273 31.2891 151.82 30.5859L152.844 31.5625C152.505 32.0677 152.052 32.4609 151.484 32.7422C150.922 33.0182 150.289 33.1562 149.586 33.1562ZM149.359 25.9141C148.839 25.9141 148.417 26.0964 148.094 26.4609C147.776 26.8255 147.573 27.3333 147.484 27.9844H151.102V27.8438C151.06 27.2083 150.891 26.7292 150.594 26.4062C150.297 26.0781 149.885 25.9141 149.359 25.9141ZM154.492 31.4844C155.018 30.8958 155.37 30.3385 155.547 29.8125C155.729 29.2812 155.839 28.6042 155.875 27.7812L155.984 24.5469H161.852V31.4844H163.023V35.5156H161.133V33H155.711V35.5156H153.789L153.797 31.4844H154.492ZM156.719 31.4844H159.961V26.1797H157.828L157.773 27.7969C157.701 29.349 157.349 30.5781 156.719 31.4844ZM167.852 31.6406C168.326 31.6406 168.719 31.5026 169.031 31.2266C169.344 30.9505 169.51 30.6094 169.531 30.2031H171.32C171.299 30.7292 171.135 31.2214 170.828 31.6797C170.521 32.1328 170.104 32.4922 169.578 32.7578C169.052 33.0234 168.484 33.1562 167.875 33.1562C166.693 33.1562 165.755 32.7734 165.062 32.0078C164.37 31.2422 164.023 30.1849 164.023 28.8359V28.6406C164.023 27.3542 164.367 26.3255 165.055 25.5547C165.742 24.7786 166.68 24.3906 167.867 24.3906C168.872 24.3906 169.69 24.6849 170.32 25.2734C170.956 25.8568 171.289 26.625 171.32 27.5781H169.531C169.51 27.0938 169.344 26.6953 169.031 26.3828C168.724 26.0703 168.331 25.9141 167.852 25.9141C167.237 25.9141 166.763 26.138 166.43 26.5859C166.096 27.0286 165.927 27.7031 165.922 28.6094V28.9141C165.922 29.8307 166.086 30.5156 166.414 30.9688C166.747 31.4167 167.227 31.6406 167.852 31.6406ZM179.406 26.0547H176.664V33H174.766V26.0547H172.055V24.5469H179.406V26.0547ZM180.82 33V24.5469H184.25C185.406 24.5469 186.286 24.75 186.891 25.1562C187.495 25.5573 187.797 26.1354 187.797 26.8906C187.797 27.2812 187.674 27.6328 187.43 27.9453C187.19 28.2526 186.833 28.4896 186.359 28.6562C186.911 28.7708 187.349 29.0026 187.672 29.3516C187.995 29.7005 188.156 30.112 188.156 30.5859C188.156 31.3724 187.865 31.9714 187.281 32.3828C186.703 32.7943 185.87 33 184.781 33H180.82ZM182.719 29.3984V31.5H184.797C185.771 31.5 186.258 31.151 186.258 30.4531C186.258 29.75 185.763 29.3984 184.773 29.3984H182.719ZM182.719 28.0391H184.281C185.359 28.0391 185.898 27.7214 185.898 27.0859C185.898 26.4193 185.388 26.0755 184.367 26.0547H182.719V28.0391Z" fill="#11751B"/>
<path d="M249.06 46.7719C252.011 45.7454 255.732 48.2476 254.834 54.1502C256.759 52.9953 263.816 54.7276 265.292 58.7697C266.062 55.0484 271.002 52.9953 273.568 52.8029C274.402 51.648 274.723 50.8781 274.723 50.8781C274.723 50.8781 264.265 55.6259 262.148 43.1149C259.004 42.0242 252.139 43.4998 249.06 46.7719Z" fill="#F7CC74"/>
<path d="M274.98 50.4932C271.515 52.9312 262.597 50.044 262.725 42.5374C259.133 41.1901 251.177 43.3715 247.391 47.7343C246.686 48.7609 252.973 43.4998 261.571 43.4357C260.48 47.221 268.243 55.8825 274.146 51.3914C274.467 51.1347 275.044 50.814 274.98 50.4932Z" fill="#328535"/>
<path d="M262.212 43.1149C260.544 43.9489 255.283 51.8405 254.962 55.8825C254.321 58.1922 253.102 48.9533 261.186 42.7941C261.186 42.5374 262.212 43.1149 262.212 43.1149Z" fill="#328535"/>
<path d="M262.212 43.1149C261.571 44.6547 263.944 54.9843 265.548 58.513C265.613 60.3736 261.25 55.1126 261.314 43.179C261.763 42.8582 262.212 43.1149 262.212 43.1149Z" fill="#328535"/>
<path d="M303.21 28.1016C304.108 30.4114 305.199 31.5021 305.648 27.6525C307.059 30.1547 307.829 30.1547 308.086 26.9468C309.497 30.0264 310.588 29.2565 310.396 25.5353C308.086 25.7919 304.365 27.0109 303.21 28.1016Z" fill="#FFC756"/>
<path d="M285.181 15.0774C283.577 11.8053 275.429 10.7787 273.632 5.32521C272.028 7.82741 276.263 11.9336 271.515 12.4469C275.172 13.6017 277.289 16.0398 274.787 18.0287C277.61 21.1725 285.181 15.0774 285.181 15.0774Z" fill="#32853F"/>
<path d="M272.028 26.9468C271.708 18.6061 279.278 13.0884 288.582 13.5376C297.885 13.9867 308.727 11.8053 310.011 13.9867C311.294 16.1681 311.294 25.3428 311.294 25.3428C307.508 28.8074 303.274 27.0751 301.991 30.2189C305.904 31.1813 311.294 30.2189 311.294 30.2189C311.294 30.2189 312.577 32.5928 310.524 33.0419C308.471 33.491 295.831 36.2498 290.891 36.7631C286.657 39.4578 287.555 41.575 288.197 61.0794C288.838 80.5837 284.86 108.814 242.387 110.674C199.721 112.599 198.438 80.3913 202.544 66.0838C206.65 51.7763 223.717 49.3383 233.148 42.4733C245.595 33.4268 237.254 23.9313 224.038 22.7123C222.754 21.3008 241.617 21.6216 246.942 31.5021C252.268 41.3826 243.991 47.2852 232.186 54.6635C220.38 62.0418 214.735 70.2541 219.931 76.2209C243.414 78.4665 271.387 62.2342 272.028 26.9468Z" fill="#82D85A"/>
<path d="M283.513 37.0197C277.546 45.4246 285.951 72.1789 274.916 85.524C263.88 98.869 247.52 104.323 230.197 103.168C218.328 102.398 210.179 100.088 205.303 95.3403C210.757 104.772 221.792 111.573 242.259 110.674C284.796 108.814 288.71 80.5837 288.068 61.0794C287.427 41.575 286.785 39.522 291.02 36.8914C287.619 38.0463 283.513 37.0197 283.513 37.0197Z" fill="#FFDE9C"/>
<path d="M288.517 17.5796C288.582 17.5154 289.095 17.772 289.672 18.4136C289.993 18.7344 290.314 19.1835 290.506 19.8251C290.571 20.1459 290.635 20.4667 290.571 20.8517C290.506 21.2366 290.314 21.6216 289.993 21.8782C289.351 22.3915 288.646 22.5198 288.004 22.5198C287.363 22.5198 286.849 22.3273 286.464 22.0707C285.63 21.6216 285.374 21.0442 285.502 20.98C285.63 20.9158 286.015 21.2366 286.721 21.4933C287.106 21.6216 287.555 21.6857 288.068 21.6857C288.582 21.6857 289.095 21.4933 289.48 21.1725C289.865 20.8517 289.929 20.4026 289.801 19.8893C289.672 19.4402 289.48 18.9911 289.223 18.6703C288.774 18.0928 288.453 17.7079 288.517 17.5796Z" fill="#487D3F"/>
<path d="M303.787 19.376C303.659 19.376 303.531 19.1194 303.274 18.7986C302.953 18.4778 302.504 18.0287 301.991 17.6437C301.478 17.2588 300.9 17.0021 300.644 17.0663C300.515 17.0663 300.387 17.1946 300.323 17.3229C300.259 17.4513 300.194 17.5154 300.13 17.5154C300.066 17.5154 300.002 17.4513 300.002 17.2588C300.002 17.1305 300.002 16.8097 300.323 16.553C300.644 16.2964 301.093 16.3606 301.413 16.4247C301.798 16.553 302.119 16.6813 302.44 16.938C303.082 17.3871 303.531 17.9645 303.723 18.4778C303.98 18.9911 303.851 19.376 303.787 19.376Z" fill="#487D3F"/>
<path d="M277.803 16.938C272.734 12.511 263.239 15.9114 258.491 11.8694C258.491 14.3716 270.168 15.6548 262.982 22.1349C266.318 20.2742 268.628 21.8141 268.307 24.6371C272.606 20.1459 275.686 18.8627 276.712 19.0552C278.38 18.8627 278.765 17.5154 277.803 16.938Z" fill="#48A346"/>
<path d="M294.612 36.1857C294.612 36.314 293.65 36.6348 292.046 36.9556C290.442 37.2764 288.132 37.5972 285.566 37.4047C284.283 37.2764 283.064 37.0839 281.973 36.6348C280.882 36.2498 280.048 35.6083 279.407 35.0308C278.188 33.7476 277.995 32.6569 278.059 32.6569C278.188 32.5928 278.637 33.5552 279.792 34.5817C280.433 35.095 281.203 35.5441 282.23 35.8649C283.192 36.2498 284.347 36.3782 285.566 36.5065C288.004 36.699 290.25 36.4423 291.918 36.314C293.586 36.1215 294.548 36.0574 294.612 36.1857Z" fill="#487D3F"/>
<path d="M225.064 22.0707C224.679 18.0287 229.299 19.3119 230.197 21.1083C230.261 16.8738 233.982 19.761 235.137 21.7499C236.035 17.3229 239.692 22.0707 240.27 24.8937C241.617 20.98 243.285 25.6636 242.708 29.7056C239.372 24.5087 234.303 22.7764 225.064 22.0707Z" fill="#E8B348"/>
<path d="M242.451 29.1282C242.772 26.9468 245.338 29.3848 242.9 35.2875C242.259 32.5286 243.029 31.4379 242.451 29.1282Z" fill="#E8B348"/>
<path d="M242.965 35.2874C241.938 31.5021 238.409 32.8494 238.409 39.2011C236.998 33.8759 233.982 37.7896 233.084 42.5374C231.737 36.6989 227.887 39.3295 227.181 44.3339C227.053 37.533 221.343 43.8848 220.701 47.7985C219.996 42.2166 215.633 46.6436 214.606 50.8139C213.58 44.0131 210.436 50.4931 210.5 53.5728C209.153 46.7719 207.292 54.0219 207.42 57.4865C205.752 53.0595 204.533 59.5396 206.073 64.4156C207.805 58.2564 212.232 52.6104 219.162 49.7874C226.091 46.9644 239.308 41.7675 242.965 35.2874Z" fill="#E8B348"/>
<path d="M205.945 64.0307C206.266 60.5661 208.768 61.1435 208.255 67.367C209.153 63.1325 212.746 68.8426 212.425 72.5639C213.066 67.4311 217.173 69.0351 217.75 75.9001C218.392 70.6391 225.257 70.7032 225.962 76.5417C226.219 70.6391 232.314 69.1634 233.662 75.7076C233.662 68.1369 238.153 68.1369 240.976 72.4997C239.821 63.7099 245.403 63.3891 248.803 69.2917C247.007 59.6679 252.524 60.9511 255.283 64.7365C252.203 55.3051 258.106 56.5241 261.122 59.5396C256.566 50.7498 261.25 51.1347 265.292 52.9953C258.94 48.0551 264.714 46.9644 268.372 47.4777C262.02 44.3339 266.703 41.6392 269.976 41.1901C264.009 40.2277 268.243 35.8007 270.938 35.1591C265.356 34.4534 269.783 30.668 272.093 29.064C271.066 54.7276 256.566 69.2917 237.511 74.9377C218.392 80.5196 208.319 73.1413 205.945 64.0307Z" fill="#E8B348"/>
<path d="M287.17 55.69C287.234 55.8184 286.978 56.0108 286.528 56.1392C286.079 56.3316 285.374 56.3958 284.668 56.2675C283.962 56.1391 283.385 55.8825 282.936 55.69C282.551 55.4976 282.294 55.3051 282.294 55.2409C282.294 55.1126 282.615 55.1126 283.064 55.1126C283.513 55.1768 284.155 55.3051 284.796 55.4334C286.015 55.7542 287.106 55.4976 287.17 55.69Z" fill="#CC9A37"/>
<path d="M286.785 47.991C286.913 48.1834 285.887 48.825 284.475 48.7609C283.769 48.6967 283.128 48.5042 282.743 48.1834C282.358 47.9268 282.23 47.606 282.294 47.5418C282.358 47.4777 282.615 47.5418 283 47.6702C283.385 47.7985 283.898 47.8626 284.475 47.9268C285.694 47.991 286.657 47.7985 286.785 47.991Z" fill="#CC9A37"/>
<path d="M287.94 41.1259C288.004 41.3826 286.785 41.8317 285.31 41.7675C284.54 41.7034 283.898 41.575 283.385 41.3184C282.936 41.1259 282.679 40.8693 282.743 40.741C282.807 40.6127 283.128 40.6768 283.577 40.741C284.026 40.8051 284.668 40.8693 285.374 40.8693C286.785 40.9976 287.876 40.9334 287.94 41.1259Z" fill="#CC9A37"/>
<path d="M276.776 17.3871C276.776 17.5154 276.07 17.6437 274.98 17.9004C273.889 18.157 272.349 18.4778 270.617 18.9269C268.949 19.376 267.409 19.8251 266.382 20.2101C265.356 20.595 264.714 20.98 264.65 20.8517C264.586 20.7875 265.099 20.2101 266.126 19.6327C267.152 19.0552 268.692 18.542 270.424 18.0928C272.157 17.6437 273.761 17.3871 274.916 17.2588C276.07 17.1946 276.776 17.3229 276.776 17.3871Z" fill="#32853F"/>
<path d="M275.557 17.1946C275.493 17.3871 272.862 17.1946 269.654 16.6814C268.051 16.4247 266.575 16.0398 265.548 15.6548C264.522 15.2699 263.944 14.9491 263.944 14.8849C264.008 14.7566 264.65 14.8849 265.677 15.0774C266.703 15.2699 268.179 15.5907 269.783 15.8473C272.991 16.3606 275.621 16.938 275.557 17.1946Z" fill="#32853F"/>
<path d="M275.557 18.3495C275.686 18.542 274.274 19.5043 272.413 20.2743C270.553 21.0442 269.077 21.6858 268.949 21.4933C268.821 21.3008 270.168 20.2743 272.093 19.5043C273.889 18.7344 275.429 18.157 275.557 18.3495Z" fill="#32853F"/>
<path d="M236.998 56.7166C240.912 54.4068 246.878 56.8449 247.327 65.5705C249.765 63.3891 260.288 63.774 263.495 69.0992C263.56 63.6457 269.976 59.2188 273.568 58.2564C274.467 56.3958 274.659 55.1767 274.659 55.1767C274.659 55.1767 261.186 64.9289 254.577 47.7984C249.701 47.0927 240.462 51.1989 236.998 56.7166Z" fill="#FFDE9C"/>
<path d="M274.852 54.5352C270.617 59.0263 257.144 57.4865 255.219 46.7719C249.765 45.8737 239.051 51.263 234.945 58.513C234.239 60.1812 241.617 50.9422 253.807 48.3117C253.358 54.0219 266.96 64.0949 274.018 56.0108C274.338 55.6259 275.108 55.0484 274.852 54.5352Z" fill="#46A355"/>
<path d="M254.577 47.7985C252.46 49.4666 247.263 62.1701 247.969 68.0086C247.777 71.4731 243.35 58.7055 253.038 47.6701C252.973 47.221 254.577 47.7985 254.577 47.7985Z" fill="#46A355"/>
<path d="M254.577 47.7985C254.128 50.1723 260.416 64.0949 263.688 68.7143C264.265 71.2807 256.63 65.1214 253.294 48.1834C253.936 47.5418 254.577 47.7985 254.577 47.7985Z" fill="#46A355"/>
</g>
<defs>
<clipPath id="clip0">
<rect width="343" height="56" rx="12" fill="white"/>
</clipPath>
</defs>
</svg>
