<svg width="315" height="184" viewBox="0 0 315 184" fill="none" xmlns="http://www.w3.org/2000/svg">
<g clip-path="url(#clip0)">
<path d="M135.907 72.8C140.507 71.2 146.307 75.1 144.907 84.3C147.907 82.5 158.907 85.2 161.207 91.5C162.407 85.7 170.107 82.5 174.107 82.2C175.407 80.4 175.907 79.2 175.907 79.2C175.907 79.2 159.607 86.6 156.307 67.1C151.407 65.4 140.707 67.7 135.907 72.8Z" fill="#F7CC74"/>
<path d="M176.307 78.6C170.907 82.4 157.007 77.9 157.207 66.2C151.607 64.1 139.207 67.5 133.307 74.3C132.207 75.9 142.007 67.7 155.407 67.6C153.707 73.5 165.807 87 175.007 80C175.507 79.6 176.407 79.1 176.307 78.6Z" fill="#623285"/>
<path d="M156.407 67.1C153.807 68.4 145.607 80.7 145.107 87C144.107 90.6 142.207 76.2 154.807 66.6C154.807 66.2 156.407 67.1 156.407 67.1Z" fill="#623285"/>
<path d="M156.407 67.1C155.407 69.5 159.107 85.6 161.607 91.1C161.707 94 154.907 85.8 155.007 67.2C155.707 66.7 156.407 67.1 156.407 67.1Z" fill="#623285"/>
<path d="M220.307 43.7C221.707 47.3 223.407 49 224.107 43C226.307 46.9 227.507 46.9 227.907 41.9C230.107 46.7 231.807 45.5 231.507 39.7C227.907 40.1 222.107 42 220.307 43.7Z" fill="#FFC756"/>
<path d="M208.607 115C207.207 119.4 205.607 127.5 209.407 121.9C209.607 125 211.207 122.6 212.007 121.2C213.207 122.9 215.707 116.3 216.707 112.5C213.507 114.1 210.107 116.4 208.607 115Z" fill="#FFC756"/>
<path d="M191.507 152.2C189.007 154.9 185.707 161.3 190.307 158.1C188.607 161 193.007 161.2 194.807 158.6C194.207 160.7 198.407 159.6 201.907 152.5C202.307 148.1 197.107 152.8 191.507 152.2Z" fill="#FFC756"/>
<path d="M121.607 158.5C126.807 166.4 137.307 174.7 137.307 174.7C130.407 180.1 134.107 180.6 135.807 181.1C137.507 181.6 162.807 183.6 163.007 182.3C163.207 181.1 168.207 178.6 166.907 177.9C165.707 177.2 156.807 175.9 156.807 175.9C167.607 168.3 170.807 143.7 148.507 139.3" fill="#764A96"/>
<path d="M159.007 182.6C159.007 179.8 161.507 177.7 163.807 178.8C164.707 177.3 167.007 177.9 167.007 177.9C172.007 176.8 177.707 179.4 175.507 182.8C170.707 182.7 163.607 183.7 159.007 182.6Z" fill="#FFC756"/>
<path d="M194.007 95.1C200.507 93.3 214.007 92.3 216.607 98.4C219.207 104.5 218.907 110 216.607 113.1C214.307 116.2 208.307 117 208.607 115.1C208.907 113.1 207.607 106.8 207.607 106.8C200.107 106.6 191.107 107.9 191.107 107.9" fill="#764A96"/>
<path d="M192.207 23.4C189.707 18.3 177.007 16.7 174.207 8.2C171.707 12.1 178.307 18.5 170.907 19.3C176.607 21.1 179.907 24.9 176.007 28C180.407 32.9 192.207 23.4 192.207 23.4Z" fill="#623285"/>
<path d="M171.707 41.9C171.207 28.9 183.007 20.3 197.507 21C212.007 21.7 228.907 18.3 230.907 21.7C232.907 25.1 232.907 39.4 232.907 39.4C227.007 44.8 220.407 42.1 218.407 47C224.507 48.5 232.907 47 232.907 47C232.907 47 234.907 50.7 231.707 51.4C228.507 52.1 208.807 56.4 201.107 57.2C194.507 61.4 195.907 64.7 196.907 95.1C197.907 125.5 191.707 169.5 125.507 172.4C59.007 175.4 57.007 125.2 63.407 102.9C69.807 80.6 96.407 76.8 111.107 66.1C130.507 52 117.507 37.2 96.907 35.3C94.907 33.1 124.307 33.6 132.607 49C140.907 64.4 128.007 73.6 109.607 85.1C91.207 96.6 82.407 109.4 90.507 118.7C127.107 122.2 170.707 96.9 171.707 41.9Z" fill="#A07CBA"/>
<path d="M189.607 57.6C180.307 70.7 193.407 112.4 176.207 133.2C159.007 154 133.507 162.5 106.507 160.7C88.007 159.5 75.307 155.9 67.707 148.5C76.207 163.2 93.407 173.8 125.307 172.4C191.607 169.5 197.707 125.5 196.707 95.1C195.707 64.7 194.707 61.5 201.307 57.4C196.007 59.2 189.607 57.6 189.607 57.6Z" fill="#FFDE9C"/>
<path d="M234.107 44C248.207 42.2 261.807 38.3 261.807 18.4C261.807 0.699993 271.007 -0.100006 271.007 -0.100006C268.707 7.29999 269.707 14.8 269.707 14.8C278.907 4.29999 302.307 -1.70001 311.407 7.89999C306.007 6.59999 299.307 8.59999 295.007 11.5C309.707 11.5 315.007 22.1 314.507 31.1C309.607 20.8 295.007 18 286.407 27C277.707 36 266.107 44.2 256.807 45.3C264.007 47.7 271.807 43.7 271.807 43.7C265.607 54.5 243.907 50.4 234.107 44Z" fill="#E6692E"/>
<path d="M197.407 27.3C197.507 27.2 198.307 27.6 199.207 28.6C199.707 29.1 200.207 29.8 200.507 30.8C200.607 31.3 200.707 31.8 200.607 32.4C200.507 33 200.207 33.6 199.707 34C198.707 34.8 197.607 35 196.607 35C195.607 35 194.807 34.7 194.207 34.3C192.907 33.6 192.507 32.7 192.707 32.6C192.907 32.5 193.507 33 194.607 33.4C195.207 33.6 195.907 33.7 196.707 33.7C197.507 33.7 198.307 33.4 198.907 32.9C199.507 32.4 199.607 31.7 199.407 30.9C199.207 30.2 198.907 29.5 198.507 29C197.807 28.1 197.307 27.5 197.407 27.3Z" fill="#633F7D"/>
<path d="M221.207 30.1C221.007 30.1 220.807 29.7 220.407 29.2C219.907 28.7 219.207 28 218.407 27.4C217.607 26.8 216.707 26.4 216.307 26.5C216.107 26.5 215.907 26.7 215.807 26.9C215.707 27.1 215.607 27.2 215.507 27.2C215.407 27.2 215.307 27.1 215.307 26.8C215.307 26.6 215.307 26.1 215.807 25.7C216.307 25.3 217.007 25.4 217.507 25.5C218.107 25.7 218.607 25.9 219.107 26.3C220.107 27 220.807 27.9 221.107 28.7C221.507 29.5 221.307 30.1 221.207 30.1Z" fill="#633F7D"/>
<path d="M180.707 26.3C172.807 19.4 158.007 24.7 150.607 18.4C150.607 22.3 168.807 24.3 157.607 34.4C162.807 31.5 166.407 33.9 165.907 38.3C172.607 31.3 177.407 29.3 179.007 29.6C181.607 29.3 182.207 27.2 180.707 26.3Z" fill="#7B46A3"/>
<path d="M183.007 115.9C193.807 116.9 212.607 132.9 202.507 152.1C195.807 157.5 190.107 155.2 191.507 152.3C193.007 149.4 195.707 134.8 173.107 126.3" fill="#A07CBA"/>
<path d="M106.907 159.5C112.107 167.4 122.607 175.7 122.607 175.7C115.707 181.1 119.407 181.6 121.107 182.1C122.807 182.6 148.107 184.6 148.307 183.3C148.507 182.1 153.507 179.6 152.207 178.9C151.007 178.2 142.107 176.9 142.107 176.9C152.907 169.3 156.107 144.7 133.807 140.3" fill="#A07CBA"/>
<path d="M144.307 183.5C144.307 180.7 146.807 178.6 149.107 179.7C150.007 178.2 152.307 178.8 152.307 178.8C157.307 177.7 163.007 180.3 160.807 183.7C156.007 183.7 148.807 184.6 144.307 183.5Z" fill="#FFC756"/>
<path d="M206.907 56.3C206.907 56.5 205.407 57 202.907 57.5C200.407 58 196.807 58.5 192.807 58.2C190.807 58 188.907 57.7 187.207 57C185.507 56.4 184.207 55.4 183.207 54.5C181.307 52.5 181.007 50.8 181.107 50.8C181.307 50.7 182.007 52.2 183.807 53.8C184.807 54.6 186.007 55.3 187.607 55.8C189.107 56.4 190.907 56.6 192.807 56.8C196.607 57.1 200.107 56.7 202.707 56.5C205.307 56.2 206.807 56.1 206.907 56.3Z" fill="#633F7D"/>
<path d="M98.507 34.3C97.907 28 105.107 30 106.507 32.8C106.607 26.2 112.407 30.7 114.207 33.8C115.607 26.9 121.307 34.3 122.207 38.7C124.307 32.6 126.907 39.9 126.007 46.2C120.807 38.1 112.907 35.4 98.507 34.3Z" fill="#E8B348"/>
<path d="M125.607 45.3C126.107 41.9 130.107 45.7 126.307 54.9C125.307 50.6 126.507 48.9 125.607 45.3Z" fill="#E8B348"/>
<path d="M126.407 54.9C124.807 49 119.307 51.1 119.307 61C117.107 52.7 112.407 58.8 111.007 66.2C108.907 57.1 102.907 61.2 101.807 69C101.607 58.4 92.707 68.3 91.707 74.4C90.607 65.7 83.807 72.6 82.207 79.1C80.607 68.5 75.707 78.6 75.807 83.4C73.707 72.8 70.807 84.1 71.007 89.5C68.407 82.6 66.507 92.7 68.907 100.3C71.607 90.7 78.507 81.9 89.307 77.5C100.107 73.1 120.707 65 126.407 54.9Z" fill="#E8B348"/>
<path d="M68.707 99.7C69.207 94.3 73.107 95.2 72.307 104.9C73.707 98.3 79.307 107.2 78.807 113C79.807 105 86.207 107.5 87.107 118.2C88.107 110 98.807 110.1 99.907 119.2C100.307 110 109.807 107.7 111.907 117.9C111.907 106.1 118.907 106.1 123.307 112.9C121.507 99.2 130.207 98.7 135.507 107.9C132.707 92.9 141.307 94.9 145.607 100.8C140.807 86.1 150.007 88 154.707 92.7C147.607 79 154.907 79.6 161.207 82.5C151.307 74.8 160.307 73.1 166.007 73.9C156.107 69 163.407 64.8 168.507 64.1C159.207 62.6 165.807 55.7 170.007 54.7C161.307 53.6 168.207 47.7 171.807 45.2C170.207 85.2 147.607 107.9 117.907 116.7C88.107 125.4 72.407 113.9 68.707 99.7Z" fill="#E8B348"/>
<path d="M197.907 124.4C197.707 124.5 196.907 123.6 195.407 122.3C193.907 121 191.607 119.5 188.907 118.3C186.207 117.1 183.507 116.3 181.607 115.8C179.707 115.3 178.407 115.2 178.407 115C178.407 114.8 179.707 114.6 181.707 114.9C183.707 115.1 186.507 115.8 189.407 117.1C192.307 118.4 194.607 120.1 196.007 121.6C197.507 123.1 198.107 124.3 197.907 124.4Z" fill="#633F7D"/>
<path d="M182.707 115.7C182.407 115.9 181.307 114.7 179.707 113.6C178.207 112.5 176.707 111.9 176.807 111.5C176.807 111.3 177.307 111.2 178.007 111.4C178.707 111.5 179.607 111.9 180.507 112.5C182.307 113.8 183.007 115.5 182.707 115.7Z" fill="#633F7D"/>
<path d="M189.407 137.5C189.207 137.6 188.407 136.7 187.007 135.3C185.607 133.9 183.707 131.9 181.107 130.5C178.507 129.1 175.807 128.7 173.907 128.5C171.907 128.3 170.707 128.1 170.707 127.9C170.707 127.7 171.907 127.6 174.007 127.6C175.007 127.6 176.207 127.7 177.607 127.9C178.907 128.2 180.407 128.6 181.807 129.4C184.607 130.9 186.507 133.1 187.707 134.7C189.007 136.2 189.507 137.4 189.407 137.5Z" fill="#633F7D"/>
<path d="M150.207 161.3C150.107 161.3 150.007 161 149.907 160.3C149.907 160 149.807 159.6 149.807 159.2C149.707 158.8 149.707 158.3 149.607 157.8C149.307 155.7 148.607 152.8 147.007 149.9C146.307 148.5 145.407 147.2 144.507 146.1C143.607 145 142.707 144.1 141.907 143.5C141.107 142.8 140.307 142.4 139.807 142.1C139.307 141.8 139.007 141.7 139.007 141.6C139.007 141.5 139.407 141.5 140.007 141.7C140.607 141.9 141.507 142.2 142.407 142.8C143.407 143.4 144.407 144.3 145.407 145.4C146.407 146.5 147.407 147.8 148.207 149.4C149.907 152.4 150.407 155.6 150.507 157.8C150.507 158.4 150.507 158.9 150.507 159.3C150.507 159.7 150.407 160.1 150.407 160.4C150.407 161 150.307 161.3 150.207 161.3Z" fill="#633F7D"/>
<path d="M115.407 169.8C115.307 169.9 114.407 169.4 113.107 168.3C111.807 167.2 110.207 165.6 108.707 163.5C108.007 162.5 107.307 161.4 106.907 160.4C106.407 159.4 106.107 158.5 105.807 157.7C105.207 156.1 105.007 155.1 105.207 155.1C105.407 155 105.907 155.9 106.707 157.3C107.107 158 107.507 158.9 108.007 159.8C108.507 160.7 109.107 161.7 109.807 162.7C111.207 164.7 112.707 166.3 113.807 167.6C114.907 168.9 115.607 169.7 115.407 169.8Z" fill="#633F7D"/>
<path d="M142.607 176.7C142.707 177.1 140.207 177.7 137.207 177.7C134.207 177.7 131.707 177 131.807 176.6C131.907 176.3 134.307 176.3 137.207 176.3C140.207 176.5 142.507 176.4 142.607 176.7Z" fill="#633F7D"/>
<path d="M154.307 183.4C154.007 183.7 152.607 182.5 150.807 181.3C149.907 180.7 149.107 180.2 148.407 180C147.807 179.8 147.307 179.8 147.307 179.6C147.207 179.4 147.707 179.1 148.607 179.1C149.507 179.1 150.607 179.5 151.507 180.2C153.507 181.5 154.507 183.1 154.307 183.4Z" fill="#CC9A37"/>
<path d="M158.307 182.6C158.107 182.7 157.807 182.3 157.107 181.9C156.507 181.4 155.507 180.9 154.407 180.3C152.207 179.2 150.207 178.9 150.207 178.5C150.207 178.3 150.707 178.1 151.607 178.2C152.507 178.2 153.707 178.5 154.907 179.1C156.107 179.7 157.107 180.5 157.707 181.2C158.407 181.9 158.507 182.5 158.307 182.6Z" fill="#CC9A37"/>
<path d="M168.807 181.8C168.607 181.9 168.307 181.6 167.807 181.3C167.307 180.9 166.507 180.5 165.607 180C163.807 179.1 162.207 178.6 162.207 178.3C162.207 177.9 164.107 177.8 166.207 178.8C167.207 179.3 168.107 180 168.507 180.6C168.907 181.2 168.907 181.7 168.807 181.8Z" fill="#CC9A37"/>
<path d="M173.307 181.6C173.107 181.7 172.807 181.4 172.307 181C171.807 180.6 171.007 180.2 170.107 179.7C168.307 178.8 166.707 178.2 166.707 177.8C166.807 177.5 168.607 177.5 170.707 178.5C171.707 179 172.507 179.7 173.007 180.3C173.407 181 173.507 181.5 173.307 181.6Z" fill="#CC9A37"/>
<path d="M93.207 168.2C93.107 168.3 92.507 168 91.607 167.3C90.807 166.6 89.607 165.6 88.707 164.2C87.707 162.8 87.107 161.4 86.907 160.3C86.707 159.2 86.807 158.5 87.007 158.5C87.207 158.5 87.407 159.1 87.807 160C88.207 160.9 88.807 162.2 89.707 163.5C91.607 166 93.507 167.9 93.207 168.2Z" fill="#CC9A37"/>
<path d="M108.707 172.3C108.607 172.4 107.907 172.2 106.807 171.5C105.807 170.8 104.607 169.5 103.507 168C102.407 166.4 101.807 164.8 101.507 163.6C101.307 162.4 101.407 161.6 101.607 161.6C101.807 161.6 102.007 162.3 102.407 163.4C102.807 164.5 103.607 165.9 104.607 167.4C105.607 168.9 106.607 170.1 107.407 171C108.307 171.7 108.807 172.2 108.707 172.3Z" fill="#CC9A37"/>
<path d="M162.007 164.1C162.007 164.3 161.107 164.4 159.707 163.8C158.407 163.3 156.807 162 155.507 160.3C154.207 158.6 153.407 156.8 153.107 155.4C152.807 154 152.907 153.1 153.107 153.1C153.307 153.1 153.507 153.9 154.007 155.1C154.507 156.3 155.307 157.9 156.507 159.5C157.707 161.1 159.007 162.3 160.107 163C161.207 163.7 162.007 163.9 162.007 164.1Z" fill="#CC9A37"/>
<path d="M176.007 156.2C176.007 156.4 175.107 156.5 173.607 156.2C172.907 156 172.007 155.7 171.107 155.2C170.207 154.7 169.407 154 168.507 153.2C167.707 152.4 167.007 151.7 166.307 151C165.707 150.3 165.007 149.7 164.607 149.1C164.107 148.5 163.907 147.9 163.707 147.5C163.607 147.1 163.607 146.8 163.707 146.8C163.907 146.8 164.207 147.5 165.307 148.5C165.807 149 166.407 149.5 167.207 150.2C167.907 150.9 168.707 151.6 169.507 152.3C171.107 153.8 172.607 154.8 173.907 155.3C175.107 155.8 176.007 156 176.007 156.2Z" fill="#CC9A37"/>
<path d="M186.507 142.7C186.507 142.9 185.807 143 184.607 143.1C183.407 143.1 181.807 143 180.007 142.3C178.307 141.6 176.907 140.6 176.107 139.7C175.307 138.8 174.907 138.2 175.007 138.1C175.307 137.8 177.307 139.9 180.407 141.1C182.007 141.7 183.507 142 184.607 142.2C185.807 142.3 186.507 142.5 186.507 142.7Z" fill="#CC9A37"/>
<path d="M196.007 111.4C196.107 111.7 194.107 113 191.107 113.4C188.107 113.7 185.807 112.8 185.907 112.5C186.007 112.1 188.307 112.4 191.007 112.1C193.607 111.8 195.807 111.1 196.007 111.4Z" fill="#CC9A37"/>
<path d="M196.007 98.6C196.107 98.7 195.707 99.2 195.007 99.6C194.307 100.1 193.107 100.6 191.707 100.6C190.307 100.6 189.107 100.1 188.407 99.7C187.707 99.2 187.307 98.8 187.407 98.7C187.607 98.3 189.407 99.4 191.707 99.3C193.907 99.3 195.807 98.2 196.007 98.6Z" fill="#CC9A37"/>
<path d="M195.307 86.7C195.407 86.9 195.007 87.2 194.307 87.4C193.607 87.7 192.507 87.8 191.407 87.6C190.307 87.4 189.407 87 188.707 86.7C188.107 86.4 187.707 86.1 187.707 86C187.707 85.8 188.207 85.8 188.907 85.8C189.607 85.9 190.607 86.1 191.607 86.3C193.507 86.8 195.207 86.4 195.307 86.7Z" fill="#CC9A37"/>
<path d="M194.707 74.7C194.907 75 193.307 76 191.107 75.9C190.007 75.8 189.007 75.5 188.407 75C187.807 74.6 187.607 74.1 187.707 74C187.807 73.9 188.207 74 188.807 74.2C189.407 74.4 190.207 74.5 191.107 74.6C193.007 74.7 194.507 74.4 194.707 74.7Z" fill="#CC9A37"/>
<path d="M196.507 64C196.607 64.4 194.707 65.1 192.407 65C191.207 64.9 190.207 64.7 189.407 64.3C188.707 64 188.307 63.6 188.407 63.4C188.507 63.2 189.007 63.3 189.707 63.4C190.407 63.5 191.407 63.6 192.507 63.6C194.707 63.8 196.407 63.7 196.507 64Z" fill="#CC9A37"/>
<path d="M264.807 32.9C269.207 25 273.507 11.8 289.807 9.2C287.807 10.4 285.607 12.6 285.607 12.6C292.107 12 296.307 13.6 299.107 17.1C288.707 15.5 277.907 22.7 278.507 22.4C284.107 20.9 285.407 22.2 285.407 22.2C278.607 24.7 274.307 30.6 264.807 32.9Z" fill="#FBB03B"/>
<path d="M208.407 100.3C208.807 100.4 208.607 102.1 208.507 104.1C208.407 106.1 208.307 107.8 207.907 107.9C207.507 107.9 207.007 106.2 207.207 104C207.307 101.9 208.007 100.2 208.407 100.3Z" fill="#633F7D"/>
<path d="M179.107 27C179.107 27.2 178.007 27.4 176.307 27.8C174.607 28.2 172.207 28.7 169.507 29.4C166.907 30.1 164.507 30.8 162.907 31.4C161.307 32 160.307 32.6 160.207 32.4C160.107 32.3 160.907 31.4 162.507 30.5C164.107 29.6 166.507 28.8 169.207 28.1C171.907 27.4 174.407 27 176.207 26.8C178.007 26.7 179.107 26.9 179.107 27Z" fill="#623285"/>
<path d="M177.207 26.7C177.107 27 173.007 26.7 168.007 25.9C165.507 25.5 163.207 24.9 161.607 24.3C160.007 23.7 159.107 23.2 159.107 23.1C159.207 22.9 160.207 23.1 161.807 23.4C163.407 23.7 165.707 24.2 168.207 24.6C173.207 25.4 177.307 26.3 177.207 26.7Z" fill="#623285"/>
<path d="M177.207 28.5C177.407 28.8 175.207 30.3 172.307 31.5C169.407 32.7 167.107 33.7 166.907 33.4C166.707 33.1 168.807 31.5 171.807 30.3C174.607 29.1 177.007 28.2 177.207 28.5Z" fill="#623285"/>
<path d="M117.107 88.3C123.207 84.7 132.507 88.5 133.207 102.1C137.007 98.7 153.407 99.3 158.407 107.6C158.507 99.1 168.507 92.2 174.107 90.7C175.507 87.8 175.807 85.9 175.807 85.9C175.807 85.9 154.807 101.1 144.507 74.4C136.907 73.3 122.507 79.7 117.107 88.3Z" fill="#FFDE9C"/>
<path d="M176.107 84.9C169.507 91.9 148.507 89.5 145.507 72.8C137.007 71.4 120.307 79.8 113.907 91.1C112.807 93.7 124.307 79.3 143.307 75.2C142.607 84.1 163.807 99.8 174.807 87.2C175.307 86.6 176.507 85.7 176.107 84.9Z" fill="#7B46A3"/>
<path d="M144.507 74.4C141.207 77 133.107 96.8 134.207 105.9C133.907 111.3 127.007 91.4 142.107 74.2C142.007 73.5 144.507 74.4 144.507 74.4Z" fill="#7B46A3"/>
<path d="M144.507 74.4C143.807 78.1 153.607 99.8 158.707 107C159.607 111 147.707 101.4 142.507 75C143.507 74 144.507 74.4 144.507 74.4Z" fill="#7B46A3"/>
</g>
<defs>
<clipPath id="clip0">
<rect width="315" height="184" fill="white"/>
</clipPath>
</defs>
</svg>
